<svg width="330" height="243" viewBox="0 0 330 243" fill="none" xmlns="http://www.w3.org/2000/svg">
<rect width="330" height="243" rx="15" fill="#F3F3BF"/>
<path d="M47.2324 51.84H57.3124V53.424H49.2124V65.124H55.8724V66.636H49.2124V79.452H57.4204V81H47.2324V51.84ZM63.4532 79.596L70.9772 61.668H64.2452V60.192H72.9212V61.452L65.4692 79.524H72.8132V81H63.4532V79.596ZM84.5562 81.324C83.3802 81.324 82.4082 81.096 81.6402 80.64C80.8722 80.184 80.2842 79.368 79.8762 78.192C79.4682 77.016 79.2642 75.384 79.2642 73.296V67.752C79.2642 65.664 79.4682 64.044 79.8762 62.892C80.3082 61.74 80.9082 60.948 81.6762 60.516C82.4442 60.084 83.4162 59.868 84.5922 59.868C85.8882 59.868 86.9082 60.144 87.6522 60.696C88.3962 61.248 88.9242 62.124 89.2362 63.324C89.5482 64.5 89.7042 66.108 89.7042 68.148V70.128H81.1722V73.44C81.1722 75.096 81.2802 76.392 81.4962 77.328C81.7362 78.264 82.0962 78.924 82.5762 79.308C83.0562 79.692 83.7162 79.884 84.5562 79.884C85.5402 79.884 86.3322 79.608 86.9322 79.056C87.5322 78.48 87.8322 77.304 87.8322 75.528V73.98H89.7042V75.348C89.7042 77.268 89.3082 78.744 88.5162 79.776C87.7482 80.808 86.4282 81.324 84.5562 81.324ZM87.8322 68.976V67.356C87.8322 65.94 87.7602 64.812 87.6162 63.972C87.4722 63.132 87.1602 62.484 86.6802 62.028C86.2242 61.548 85.5282 61.308 84.5922 61.308C83.7762 61.308 83.1162 61.476 82.6122 61.812C82.1322 62.148 81.7722 62.76 81.5322 63.648C81.2922 64.536 81.1722 65.784 81.1722 67.392V68.976H87.8322ZM105.181 79.416C104.101 80.688 102.865 81.324 101.473 81.324C100.273 81.324 99.3128 81.024 98.5928 80.424C97.8968 79.824 97.3808 78.888 97.0448 77.616C96.7328 76.32 96.5768 74.604 96.5768 72.468V68.76C96.5768 65.664 96.9248 63.408 97.6208 61.992C98.3168 60.576 99.5768 59.868 101.401 59.868C102.193 59.868 102.913 60.06 103.561 60.444C104.209 60.804 104.749 61.26 105.181 61.812V60.192H107.089V87.84H105.181V79.416ZM101.761 79.848C102.985 79.848 104.125 79.248 105.181 78.048V63.18C104.005 61.956 102.841 61.344 101.689 61.344C100.825 61.344 100.165 61.584 99.7088 62.064C99.2528 62.52 98.9408 63.24 98.7728 64.224C98.6048 65.208 98.5208 66.564 98.5208 68.292V72.612C98.5208 74.388 98.6048 75.792 98.7728 76.824C98.9648 77.856 99.2888 78.624 99.7448 79.128C100.225 79.608 100.897 79.848 101.761 79.848ZM117.87 81.324C116.862 81.324 116.058 80.964 115.458 80.244C114.882 79.5 114.594 78.348 114.594 76.788V60.192H116.502V76.572C116.502 77.772 116.682 78.624 117.042 79.128C117.426 79.608 117.978 79.848 118.698 79.848C119.418 79.848 120.15 79.62 120.894 79.164C121.638 78.708 122.334 78.096 122.982 77.328V60.192H124.854V81H122.982V78.552C122.31 79.416 121.53 80.1 120.642 80.604C119.754 81.084 118.83 81.324 117.87 81.324ZM132.865 54.144H134.809V57.456H132.865V54.144ZM132.865 60.192H134.809V81H132.865V60.192ZM147.894 81.324C146.718 81.324 145.746 81.096 144.978 80.64C144.21 80.184 143.622 79.368 143.214 78.192C142.806 77.016 142.602 75.384 142.602 73.296V67.752C142.602 65.664 142.806 64.044 143.214 62.892C143.646 61.74 144.246 60.948 145.014 60.516C145.782 60.084 146.754 59.868 147.93 59.868C149.226 59.868 150.246 60.144 150.99 60.696C151.734 61.248 152.262 62.124 152.574 63.324C152.886 64.5 153.042 66.108 153.042 68.148V70.128H144.51V73.44C144.51 75.096 144.618 76.392 144.834 77.328C145.074 78.264 145.434 78.924 145.914 79.308C146.394 79.692 147.054 79.884 147.894 79.884C148.878 79.884 149.67 79.608 150.27 79.056C150.87 78.48 151.17 77.304 151.17 75.528V73.98H153.042V75.348C153.042 77.268 152.646 78.744 151.854 79.776C151.086 80.808 149.766 81.324 147.894 81.324ZM151.17 68.976V67.356C151.17 65.94 151.098 64.812 150.954 63.972C150.81 63.132 150.498 62.484 150.018 62.028C149.562 61.548 148.866 61.308 147.93 61.308C147.114 61.308 146.454 61.476 145.95 61.812C145.47 62.148 145.11 62.76 144.87 63.648C144.63 64.536 144.51 65.784 144.51 67.392V68.976H151.17ZM160.598 51.84H162.506V81H160.598V51.84ZM185.438 81.324C184.238 81.324 183.278 81.024 182.558 80.424C181.862 79.824 181.346 78.888 181.01 77.616C180.698 76.32 180.542 74.604 180.542 72.468V68.76C180.542 66.696 180.674 65.028 180.938 63.756C181.226 62.46 181.718 61.488 182.414 60.84C183.11 60.192 184.082 59.868 185.33 59.868C186.146 59.868 186.866 60.048 187.49 60.408C188.138 60.768 188.678 61.224 189.11 61.776V51.84H191.018V81H189.11V79.416C188.03 80.688 186.806 81.324 185.438 81.324ZM185.69 79.848C186.338 79.848 186.95 79.68 187.526 79.344C188.126 79.008 188.654 78.588 189.11 78.084V63.144C187.91 61.944 186.758 61.344 185.654 61.344C184.766 61.344 184.094 61.584 183.638 62.064C183.182 62.52 182.87 63.24 182.702 64.224C182.534 65.208 182.45 66.564 182.45 68.292V72.612C182.45 74.364 182.534 75.756 182.702 76.788C182.894 77.82 183.218 78.588 183.674 79.092C184.154 79.596 184.826 79.848 185.69 79.848ZM203.637 81.324C202.461 81.324 201.489 81.096 200.721 80.64C199.953 80.184 199.365 79.368 198.957 78.192C198.549 77.016 198.345 75.384 198.345 73.296V67.752C198.345 65.664 198.549 64.044 198.957 62.892C199.389 61.74 199.989 60.948 200.757 60.516C201.525 60.084 202.497 59.868 203.673 59.868C204.969 59.868 205.989 60.144 206.733 60.696C207.477 61.248 208.005 62.124 208.317 63.324C208.629 64.5 208.785 66.108 208.785 68.148V70.128H200.253V73.44C200.253 75.096 200.361 76.392 200.577 77.328C200.817 78.264 201.177 78.924 201.657 79.308C202.137 79.692 202.797 79.884 203.637 79.884C204.621 79.884 205.413 79.608 206.013 79.056C206.613 78.48 206.913 77.304 206.913 75.528V73.98H208.785V75.348C208.785 77.268 208.389 78.744 207.597 79.776C206.829 80.808 205.509 81.324 203.637 81.324ZM206.913 68.976V67.356C206.913 65.94 206.841 64.812 206.697 63.972C206.553 63.132 206.241 62.484 205.761 62.028C205.305 61.548 204.609 61.308 203.673 61.308C202.857 61.308 202.197 61.476 201.693 61.812C201.213 62.148 200.853 62.76 200.613 63.648C200.373 64.536 200.253 65.784 200.253 67.392V68.976H206.913ZM216.342 51.84H218.25V81H216.342V51.84ZM237.33 51.84H244.386C246.786 51.84 248.454 52.476 249.39 53.748C250.326 55.02 250.794 56.784 250.794 59.04C250.794 60.936 250.482 62.496 249.858 63.72C249.258 64.944 248.142 65.688 246.51 65.952L251.19 81H249.246L244.71 66.312H239.274V81H237.33V51.84ZM244.314 64.8C246.066 64.8 247.266 64.332 247.914 63.396C248.562 62.436 248.886 60.984 248.886 59.04C248.886 57.072 248.55 55.644 247.878 54.756C247.23 53.844 246.03 53.388 244.278 53.388H239.274V64.8H244.314ZM258.851 60.192H260.759V81H258.851V60.192ZM261.659 51.48H263.603L260.363 58.464H259.355L261.659 51.48ZM273.526 81.324C271.534 81.324 270.166 80.7 269.422 79.452C268.678 78.18 268.306 76.164 268.306 73.404V67.788C268.306 65.052 268.678 63.048 269.422 61.776C270.166 60.504 271.534 59.868 273.526 59.868C275.518 59.868 276.886 60.504 277.63 61.776C278.398 63.024 278.782 65.028 278.782 67.788V73.404C278.782 76.164 278.398 78.18 277.63 79.452C276.886 80.7 275.518 81.324 273.526 81.324ZM273.526 79.884C274.486 79.884 275.206 79.644 275.686 79.164C276.19 78.66 276.514 77.964 276.658 77.076C276.802 76.188 276.874 74.988 276.874 73.476V67.716C276.874 66.204 276.802 65.004 276.658 64.116C276.514 63.228 276.19 62.544 275.686 62.064C275.206 61.56 274.486 61.308 273.526 61.308C272.566 61.308 271.846 61.56 271.366 62.064C270.886 62.544 270.574 63.228 270.43 64.116C270.286 64.98 270.214 66.18 270.214 67.716V73.476C270.214 75.012 270.286 76.224 270.43 77.112C270.574 77.976 270.886 78.66 271.366 79.164C271.846 79.644 272.566 79.884 273.526 79.884Z" fill="black"/>
<path d="M44.5684 84.6H280.438V86.4H44.5684V84.6Z" fill="black"/>
<path d="M70.8313 119.953C69.7531 120.797 68.3938 121.828 63.6125 125.297C62.675 126 60.9406 127.547 59.3 127.547C57.6125 127.547 55.925 126 54.9406 125.297C50.1594 121.828 48.8 120.797 47.7219 119.953C47.5344 119.812 47.3 119.953 47.3 120.188V129.75C47.3 131.016 48.2844 132 49.55 132H69.05C70.2688 132 71.3 131.016 71.3 129.75V120.188C71.3 119.953 71.0188 119.812 70.8313 119.953ZM59.3 126C60.3781 126.047 61.925 124.641 62.7219 124.078C68.9563 119.578 69.425 119.156 70.8313 118.031C71.1125 117.844 71.3 117.516 71.3 117.141V116.25C71.3 115.031 70.2688 114 69.05 114H49.55C48.2844 114 47.3 115.031 47.3 116.25V117.141C47.3 117.516 47.4406 117.844 47.7219 118.031C49.1281 119.156 49.5969 119.578 55.8313 124.078C56.6281 124.641 58.175 126.047 59.3 126Z" fill="black"/>
<path d="M87.864 128.16C86.9573 128.16 86.1733 127.963 85.512 127.568C84.8613 127.173 84.3547 126.651 83.992 126C83.6293 125.339 83.448 124.624 83.448 123.856C83.448 123.067 83.624 122.341 83.976 121.68C84.3387 121.008 84.8507 120.475 85.512 120.08C86.1733 119.675 86.9627 119.472 87.88 119.472C88.7973 119.472 89.5813 119.675 90.232 120.08C90.8827 120.475 91.3787 121.003 91.72 121.664C92.072 122.315 92.248 123.019 92.248 123.776C92.248 124.053 92.232 124.293 92.2 124.496H85.72C85.7733 125.147 86.0133 125.659 86.44 126.032C86.8773 126.405 87.3787 126.592 87.944 126.592C88.3707 126.592 88.7707 126.491 89.144 126.288C89.528 126.075 89.7893 125.797 89.928 125.456L91.768 125.968C91.4587 126.608 90.9627 127.136 90.28 127.552C89.5973 127.957 88.792 128.16 87.864 128.16ZM85.672 123.136H90.056C89.992 122.507 89.752 122 89.336 121.616C88.9307 121.221 88.4347 121.024 87.848 121.024C87.272 121.024 86.776 121.221 86.36 121.616C85.9547 122 85.7253 122.507 85.672 123.136ZM94.5004 126.688L99.1244 121.12H94.6924V119.616H101.428V120.928L96.8364 126.496H101.508V128H94.5004V126.688ZM108.298 128.16C107.392 128.16 106.608 127.963 105.946 127.568C105.296 127.173 104.789 126.651 104.426 126C104.064 125.339 103.882 124.624 103.882 123.856C103.882 123.067 104.058 122.341 104.41 121.68C104.773 121.008 105.285 120.475 105.946 120.08C106.608 119.675 107.397 119.472 108.314 119.472C109.232 119.472 110.016 119.675 110.666 120.08C111.317 120.475 111.813 121.003 112.154 121.664C112.506 122.315 112.682 123.019 112.682 123.776C112.682 124.053 112.666 124.293 112.634 124.496H106.154C106.208 125.147 106.448 125.659 106.874 126.032C107.312 126.405 107.813 126.592 108.378 126.592C108.805 126.592 109.205 126.491 109.578 126.288C109.962 126.075 110.224 125.797 110.362 125.456L112.202 125.968C111.893 126.608 111.397 127.136 110.714 127.552C110.032 127.957 109.226 128.16 108.298 128.16ZM106.106 123.136H110.49C110.426 122.507 110.186 122 109.77 121.616C109.365 121.221 108.869 121.024 108.282 121.024C107.706 121.024 107.21 121.221 106.794 121.616C106.389 122 106.16 122.507 106.106 123.136ZM115.54 128V125.696H117.3V128H115.54ZM120.27 123.808C120.27 123.008 120.43 122.277 120.75 121.616C121.07 120.955 121.513 120.432 122.078 120.048C122.644 119.664 123.289 119.472 124.014 119.472C124.633 119.472 125.188 119.627 125.678 119.936C126.18 120.235 126.569 120.619 126.846 121.088V116.32H128.99V125.6C128.99 125.835 129.028 126 129.102 126.096C129.177 126.181 129.305 126.235 129.486 126.256V128C129.102 128.075 128.798 128.112 128.574 128.112C128.19 128.112 127.87 128.016 127.614 127.824C127.369 127.632 127.23 127.381 127.198 127.072L127.166 126.544C126.857 127.067 126.436 127.467 125.902 127.744C125.38 128.021 124.83 128.16 124.254 128.16C123.476 128.16 122.788 127.968 122.19 127.584C121.593 127.189 121.124 126.667 120.782 126.016C120.441 125.355 120.27 124.619 120.27 123.808ZM126.846 124.928V122.928C126.676 122.459 126.382 122.069 125.966 121.76C125.55 121.451 125.124 121.296 124.686 121.296C124.249 121.296 123.865 121.419 123.534 121.664C123.204 121.899 122.948 122.213 122.766 122.608C122.585 122.992 122.494 123.408 122.494 123.856C122.494 124.315 122.596 124.736 122.798 125.12C123.001 125.493 123.273 125.792 123.614 126.016C123.966 126.229 124.366 126.336 124.814 126.336C125.22 126.336 125.62 126.203 126.014 125.936C126.42 125.669 126.697 125.333 126.846 124.928ZM136.583 128.16C135.676 128.16 134.892 127.963 134.231 127.568C133.58 127.173 133.073 126.651 132.711 126C132.348 125.339 132.167 124.624 132.167 123.856C132.167 123.067 132.343 122.341 132.695 121.68C133.057 121.008 133.569 120.475 134.231 120.08C134.892 119.675 135.681 119.472 136.599 119.472C137.516 119.472 138.3 119.675 138.951 120.08C139.601 120.475 140.097 121.003 140.439 121.664C140.791 122.315 140.967 123.019 140.967 123.776C140.967 124.053 140.951 124.293 140.919 124.496H134.439C134.492 125.147 134.732 125.659 135.159 126.032C135.596 126.405 136.097 126.592 136.663 126.592C137.089 126.592 137.489 126.491 137.863 126.288C138.247 126.075 138.508 125.797 138.647 125.456L140.487 125.968C140.177 126.608 139.681 127.136 138.999 127.552C138.316 127.957 137.511 128.16 136.583 128.16ZM134.391 123.136H138.775C138.711 122.507 138.471 122 138.055 121.616C137.649 121.221 137.153 121.024 136.567 121.024C135.991 121.024 135.495 121.221 135.079 121.616C134.673 122 134.444 122.507 134.391 123.136ZM143.857 116.32H146.001V125.312C146.001 125.707 146.065 125.968 146.193 126.096C146.321 126.224 146.497 126.288 146.721 126.288C146.892 126.288 147.068 126.267 147.249 126.224C147.43 126.181 147.59 126.128 147.729 126.064L148.017 127.696C147.729 127.835 147.393 127.941 147.009 128.016C146.625 128.091 146.278 128.128 145.969 128.128C145.297 128.128 144.774 127.952 144.401 127.6C144.038 127.237 143.857 126.725 143.857 126.064V116.32ZM155.543 121.472C154.892 121.472 154.311 121.6 153.799 121.856C153.287 122.101 152.919 122.459 152.695 122.928V128H150.551V119.616H152.519V121.408C152.807 120.832 153.18 120.379 153.639 120.048C154.108 119.717 154.599 119.536 155.111 119.504C155.335 119.504 155.479 119.509 155.543 119.52V121.472ZM158.339 118.448V116.32H160.483V118.448H158.339ZM158.339 128V119.616H160.483V128H158.339ZM167.889 128.16C166.971 128.16 166.182 127.963 165.521 127.568C164.87 127.163 164.369 126.629 164.017 125.968C163.665 125.307 163.489 124.592 163.489 123.824C163.489 123.045 163.665 122.325 164.017 121.664C164.379 121.003 164.886 120.475 165.537 120.08C166.198 119.675 166.982 119.472 167.889 119.472C168.795 119.472 169.574 119.675 170.225 120.08C170.886 120.475 171.393 121.003 171.745 121.664C172.097 122.325 172.273 123.045 172.273 123.824C172.273 124.592 172.097 125.307 171.745 125.968C171.393 126.629 170.886 127.163 170.225 127.568C169.574 127.963 168.795 128.16 167.889 128.16ZM165.697 123.824C165.697 124.315 165.793 124.752 165.985 125.136C166.177 125.509 166.438 125.803 166.769 126.016C167.099 126.229 167.473 126.336 167.889 126.336C168.294 126.336 168.662 126.229 168.993 126.016C169.323 125.792 169.585 125.493 169.777 125.12C169.979 124.736 170.081 124.299 170.081 123.808C170.081 123.328 169.979 122.901 169.777 122.528C169.585 122.144 169.323 121.845 168.993 121.632C168.662 121.408 168.294 121.296 167.889 121.296C167.473 121.296 167.099 121.408 166.769 121.632C166.438 121.845 166.177 122.144 165.985 122.528C165.793 122.901 165.697 123.333 165.697 123.824ZM181.096 118.352C181.874 118.352 182.621 118.485 183.336 118.752C184.061 119.008 184.701 119.397 185.256 119.92C185.821 120.432 186.264 121.067 186.584 121.824C186.904 122.581 187.064 123.456 187.064 124.448C187.064 124.629 187.053 124.875 187.032 125.184C187.01 125.493 186.957 125.824 186.872 126.176C186.786 126.528 186.653 126.864 186.472 127.184C186.29 127.493 186.045 127.749 185.736 127.952C185.437 128.155 185.058 128.256 184.6 128.256C184.216 128.256 183.917 128.187 183.704 128.048C183.501 127.92 183.352 127.755 183.256 127.552C183.16 127.349 183.101 127.147 183.08 126.944C182.749 127.275 182.344 127.541 181.864 127.744C181.394 127.936 180.893 128.032 180.36 128.032C179.57 128.032 178.962 127.824 178.536 127.408C178.12 126.992 177.912 126.453 177.912 125.792C177.912 125.205 178.056 124.741 178.344 124.4C178.642 124.059 179.021 123.819 179.48 123.68C179.938 123.531 180.413 123.456 180.904 123.456C181.33 123.456 181.698 123.499 182.008 123.584C182.317 123.669 182.552 123.744 182.712 123.808C182.712 123.221 182.589 122.747 182.344 122.384C182.098 122.021 181.613 121.84 180.888 121.84C180.45 121.84 180.05 121.904 179.688 122.032C179.325 122.16 179.016 122.331 178.76 122.544L178.344 121.408C179.154 120.875 180.072 120.608 181.096 120.608C181.789 120.608 182.328 120.715 182.712 120.928C183.106 121.131 183.394 121.403 183.576 121.744C183.757 122.075 183.869 122.437 183.912 122.832C183.965 123.216 183.992 123.589 183.992 123.952V125.488C183.992 125.797 184.008 126.091 184.04 126.368C184.072 126.645 184.141 126.869 184.248 127.04C184.365 127.211 184.552 127.296 184.808 127.296C185.096 127.296 185.33 127.189 185.512 126.976C185.693 126.763 185.832 126.501 185.928 126.192C186.024 125.872 186.088 125.552 186.12 125.232C186.152 124.912 186.168 124.64 186.168 124.416C186.168 123.424 185.949 122.539 185.512 121.76C185.085 120.971 184.482 120.352 183.704 119.904C182.936 119.445 182.045 119.216 181.032 119.216C180.029 119.216 179.144 119.435 178.376 119.872C177.608 120.309 177.005 120.917 176.568 121.696C176.13 122.464 175.912 123.339 175.912 124.32C175.912 125.269 176.114 126.139 176.52 126.928C176.936 127.707 177.512 128.325 178.248 128.784C178.994 129.243 179.864 129.472 180.856 129.472C181.357 129.472 181.8 129.413 182.184 129.296C182.568 129.179 182.957 129.035 183.352 128.864L183.608 129.696C183.17 129.909 182.712 130.069 182.232 130.176C181.762 130.283 181.293 130.336 180.824 130.336C180.024 130.336 179.272 130.192 178.568 129.904C177.874 129.616 177.261 129.205 176.728 128.672C176.194 128.139 175.773 127.504 175.464 126.768C175.165 126.032 175.016 125.216 175.016 124.32C175.016 123.371 175.181 122.528 175.512 121.792C175.842 121.056 176.29 120.432 176.856 119.92C177.421 119.408 178.066 119.019 178.792 118.752C179.528 118.485 180.296 118.352 181.096 118.352ZM181.88 126.608C182.168 126.469 182.376 126.299 182.504 126.096C182.632 125.883 182.696 125.659 182.696 125.424V124.816C182.546 124.773 182.306 124.709 181.976 124.624C181.656 124.528 181.298 124.48 180.904 124.48C180.402 124.48 179.992 124.581 179.672 124.784C179.352 124.976 179.192 125.296 179.192 125.744C179.192 126.107 179.304 126.395 179.528 126.608C179.762 126.821 180.082 126.928 180.488 126.928C180.701 126.928 180.936 126.901 181.192 126.848C181.448 126.795 181.677 126.715 181.88 126.608ZM193.715 128.048C192.969 128.048 192.313 127.856 191.747 127.472C191.182 127.088 190.739 126.576 190.419 125.936C190.099 125.285 189.939 124.576 189.939 123.808C189.939 122.997 190.105 122.267 190.435 121.616C190.766 120.955 191.225 120.432 191.811 120.048C192.398 119.664 193.075 119.472 193.843 119.472C194.494 119.472 195.065 119.621 195.555 119.92C196.046 120.208 196.451 120.597 196.771 121.088V119.616H198.643V127.6C198.643 128.432 198.441 129.141 198.035 129.728C197.641 130.325 197.091 130.779 196.387 131.088C195.683 131.408 194.883 131.568 193.987 131.568C193.07 131.568 192.297 131.413 191.667 131.104C191.049 130.805 190.515 130.379 190.067 129.824L191.235 128.688C191.555 129.083 191.955 129.392 192.435 129.616C192.926 129.84 193.443 129.952 193.987 129.952C194.435 129.952 194.846 129.867 195.219 129.696C195.603 129.536 195.913 129.28 196.147 128.928C196.382 128.587 196.499 128.144 196.499 127.6V126.544C196.222 127.024 195.827 127.397 195.315 127.664C194.814 127.92 194.281 128.048 193.715 128.048ZM194.435 126.336C194.905 126.336 195.326 126.197 195.699 125.92C196.083 125.643 196.35 125.312 196.499 124.928V122.928C196.307 122.437 196.003 122.043 195.587 121.744C195.182 121.445 194.755 121.296 194.307 121.296C193.87 121.296 193.486 121.419 193.155 121.664C192.835 121.909 192.585 122.229 192.403 122.624C192.222 123.008 192.131 123.424 192.131 123.872C192.131 124.331 192.233 124.747 192.435 125.12C192.638 125.493 192.91 125.792 193.251 126.016C193.603 126.229 193.998 126.336 194.435 126.336ZM215.2 128H213.056V123.296C213.056 122.635 212.939 122.149 212.704 121.84C212.48 121.52 212.165 121.36 211.76 121.36C211.333 121.36 210.933 121.525 210.56 121.856C210.187 122.176 209.92 122.597 209.76 123.12V128H207.616V123.296C207.616 122.624 207.499 122.133 207.264 121.824C207.04 121.515 206.725 121.36 206.32 121.36C205.904 121.36 205.504 121.52 205.12 121.84C204.747 122.16 204.48 122.581 204.32 123.104V128H202.176V119.616H204.112V121.168C204.421 120.624 204.843 120.208 205.376 119.92C205.92 119.621 206.539 119.472 207.232 119.472C207.925 119.472 208.464 119.643 208.848 119.984C209.243 120.325 209.493 120.747 209.6 121.248C209.931 120.672 210.363 120.235 210.896 119.936C211.429 119.627 212.027 119.472 212.688 119.472C213.211 119.472 213.632 119.568 213.952 119.76C214.283 119.941 214.539 120.192 214.72 120.512C214.901 120.821 215.024 121.173 215.088 121.568C215.163 121.963 215.2 122.363 215.2 122.768V128ZM218.091 125.52C218.091 124.976 218.24 124.501 218.539 124.096C218.848 123.68 219.275 123.36 219.819 123.136C220.363 122.912 220.987 122.8 221.691 122.8C222.043 122.8 222.4 122.832 222.763 122.896C223.125 122.949 223.44 123.029 223.707 123.136V122.688C223.707 122.155 223.547 121.744 223.227 121.456C222.917 121.168 222.453 121.024 221.835 121.024C221.376 121.024 220.939 121.104 220.523 121.264C220.107 121.424 219.669 121.659 219.211 121.968L218.523 120.56C219.077 120.197 219.643 119.925 220.219 119.744C220.805 119.563 221.419 119.472 222.059 119.472C223.253 119.472 224.181 119.771 224.843 120.368C225.515 120.965 225.851 121.819 225.851 122.928V125.6C225.851 125.835 225.888 126 225.963 126.096C226.037 126.181 226.171 126.235 226.363 126.256V128C226.171 128.043 225.995 128.069 225.835 128.08C225.685 128.101 225.557 128.112 225.451 128.112C225.024 128.112 224.699 128.016 224.475 127.824C224.251 127.632 224.117 127.397 224.075 127.12L224.027 126.688C223.653 127.168 223.195 127.536 222.651 127.792C222.117 128.037 221.568 128.16 221.003 128.16C220.437 128.16 219.936 128.048 219.499 127.824C219.061 127.589 218.715 127.275 218.459 126.88C218.213 126.475 218.091 126.021 218.091 125.52ZM223.307 125.952C223.573 125.696 223.707 125.451 223.707 125.216V124.368C223.152 124.144 222.592 124.032 222.027 124.032C221.461 124.032 221.003 124.155 220.651 124.4C220.299 124.635 220.123 124.949 220.123 125.344C220.123 125.664 220.251 125.952 220.507 126.208C220.763 126.464 221.131 126.592 221.611 126.592C221.931 126.592 222.24 126.533 222.539 126.416C222.848 126.299 223.104 126.144 223.307 125.952ZM229.454 118.448V116.32H231.598V118.448H229.454ZM229.454 128V119.616H231.598V128H229.454ZM235.116 116.32H237.26V125.312C237.26 125.707 237.324 125.968 237.452 126.096C237.58 126.224 237.756 126.288 237.98 126.288C238.151 126.288 238.327 126.267 238.508 126.224C238.69 126.181 238.85 126.128 238.988 126.064L239.276 127.696C238.988 127.835 238.652 127.941 238.268 128.016C237.884 128.091 237.538 128.128 237.228 128.128C236.556 128.128 236.034 127.952 235.66 127.6C235.298 127.237 235.116 126.725 235.116 126.064V116.32ZM241.762 128V125.696H243.522V128H241.762ZM250.736 128.16C249.83 128.16 249.046 127.957 248.384 127.552C247.723 127.147 247.211 126.613 246.848 125.952C246.486 125.291 246.304 124.576 246.304 123.808C246.304 123.029 246.48 122.309 246.832 121.648C247.195 120.987 247.707 120.459 248.368 120.064C249.03 119.669 249.814 119.472 250.72 119.472C251.638 119.472 252.416 119.669 253.056 120.064C253.707 120.459 254.192 120.976 254.512 121.616L252.416 122.256C252.043 121.616 251.472 121.296 250.704 121.296C250.288 121.296 249.915 121.403 249.584 121.616C249.254 121.819 248.992 122.112 248.8 122.496C248.608 122.869 248.512 123.307 248.512 123.808C248.512 124.299 248.608 124.736 248.8 125.12C249.003 125.493 249.27 125.792 249.6 126.016C249.931 126.229 250.299 126.336 250.704 126.336C251.088 126.336 251.44 126.245 251.76 126.064C252.091 125.872 252.32 125.632 252.448 125.344L254.544 125.984C254.256 126.613 253.776 127.136 253.104 127.552C252.443 127.957 251.654 128.16 250.736 128.16ZM261.257 128.16C260.34 128.16 259.551 127.963 258.889 127.568C258.239 127.163 257.737 126.629 257.385 125.968C257.033 125.307 256.857 124.592 256.857 123.824C256.857 123.045 257.033 122.325 257.385 121.664C257.748 121.003 258.255 120.475 258.905 120.08C259.567 119.675 260.351 119.472 261.257 119.472C262.164 119.472 262.943 119.675 263.593 120.08C264.255 120.475 264.761 121.003 265.113 121.664C265.465 122.325 265.641 123.045 265.641 123.824C265.641 124.592 265.465 125.307 265.113 125.968C264.761 126.629 264.255 127.163 263.593 127.568C262.943 127.963 262.164 128.16 261.257 128.16ZM259.065 123.824C259.065 124.315 259.161 124.752 259.353 125.136C259.545 125.509 259.807 125.803 260.137 126.016C260.468 126.229 260.841 126.336 261.257 126.336C261.663 126.336 262.031 126.229 262.361 126.016C262.692 125.792 262.953 125.493 263.145 125.12C263.348 124.736 263.449 124.299 263.449 123.808C263.449 123.328 263.348 122.901 263.145 122.528C262.953 122.144 262.692 121.845 262.361 121.632C262.031 121.408 261.663 121.296 261.257 121.296C260.841 121.296 260.468 121.408 260.137 121.632C259.807 121.845 259.545 122.144 259.353 122.528C259.161 122.901 259.065 123.333 259.065 123.824ZM281.712 128H279.568V123.296C279.568 122.635 279.451 122.149 279.216 121.84C278.992 121.52 278.678 121.36 278.272 121.36C277.846 121.36 277.446 121.525 277.072 121.856C276.699 122.176 276.432 122.597 276.272 123.12V128H274.128V123.296C274.128 122.624 274.011 122.133 273.776 121.824C273.552 121.515 273.238 121.36 272.832 121.36C272.416 121.36 272.016 121.52 271.632 121.84C271.259 122.16 270.992 122.581 270.832 123.104V128H268.688V119.616H270.624V121.168C270.934 120.624 271.355 120.208 271.888 119.92C272.432 119.621 273.051 119.472 273.744 119.472C274.438 119.472 274.976 119.643 275.36 119.984C275.755 120.325 276.006 120.747 276.112 121.248C276.443 120.672 276.875 120.235 277.408 119.936C277.942 119.627 278.539 119.472 279.2 119.472C279.723 119.472 280.144 119.568 280.464 119.76C280.795 119.941 281.051 120.192 281.232 120.512C281.414 120.821 281.536 121.173 281.6 121.568C281.675 121.963 281.712 122.363 281.712 122.768V128Z" fill="#5D5D5D"/>
<path d="M96.608 169.312C96.608 170.416 96.328 171.416 95.768 172.312C95.224 173.208 94.48 173.92 93.536 174.448C92.608 174.976 91.552 175.24 90.368 175.24C89.088 175.24 87.976 174.928 87.032 174.304C86.088 173.68 85.36 172.784 84.848 171.616C84.352 170.448 84.104 169.048 84.104 167.416C84.104 164.312 84.696 161.944 85.88 160.312C87.08 158.664 88.688 157.84 90.704 157.84C91.776 157.84 92.76 158.072 93.656 158.536C94.568 159 95.336 159.664 95.96 160.528L94.112 162.544C93.728 161.952 93.232 161.488 92.624 161.152C92.016 160.8 91.36 160.624 90.656 160.624C89.584 160.624 88.728 161.056 88.088 161.92C87.448 162.768 87.112 163.96 87.08 165.496C87.416 164.92 87.896 164.464 88.52 164.128C89.144 163.792 89.856 163.624 90.656 163.624C91.776 163.624 92.784 163.88 93.68 164.392C94.576 164.888 95.288 165.568 95.816 166.432C96.344 167.28 96.608 168.24 96.608 169.312ZM90.392 172.528C90.952 172.528 91.472 172.384 91.952 172.096C92.432 171.792 92.816 171.4 93.104 170.92C93.392 170.424 93.536 169.888 93.536 169.312C93.536 168.736 93.392 168.216 93.104 167.752C92.816 167.272 92.432 166.896 91.952 166.624C91.472 166.336 90.952 166.192 90.392 166.192C89.816 166.192 89.288 166.336 88.808 166.624C88.328 166.896 87.944 167.272 87.656 167.752C87.384 168.216 87.248 168.736 87.248 169.312C87.248 169.888 87.392 170.424 87.68 170.92C87.968 171.4 88.344 171.792 88.808 172.096C89.288 172.384 89.816 172.528 90.392 172.528ZM108.522 160.888H100.794V157.96H113.61L105.138 175H101.49L108.522 160.888ZM129.275 169.312C129.275 170.416 128.995 171.416 128.435 172.312C127.891 173.208 127.147 173.92 126.203 174.448C125.275 174.976 124.219 175.24 123.035 175.24C121.755 175.24 120.643 174.928 119.699 174.304C118.755 173.68 118.027 172.784 117.515 171.616C117.019 170.448 116.771 169.048 116.771 167.416C116.771 164.312 117.363 161.944 118.547 160.312C119.747 158.664 121.355 157.84 123.371 157.84C124.443 157.84 125.427 158.072 126.323 158.536C127.235 159 128.003 159.664 128.627 160.528L126.779 162.544C126.395 161.952 125.899 161.488 125.291 161.152C124.683 160.8 124.027 160.624 123.323 160.624C122.251 160.624 121.395 161.056 120.755 161.92C120.115 162.768 119.779 163.96 119.747 165.496C120.083 164.92 120.563 164.464 121.187 164.128C121.811 163.792 122.523 163.624 123.323 163.624C124.443 163.624 125.451 163.88 126.347 164.392C127.243 164.888 127.955 165.568 128.483 166.432C129.011 167.28 129.275 168.24 129.275 169.312ZM123.059 172.528C123.619 172.528 124.139 172.384 124.619 172.096C125.099 171.792 125.483 171.4 125.771 170.92C126.059 170.424 126.203 169.888 126.203 169.312C126.203 168.736 126.059 168.216 125.771 167.752C125.483 167.272 125.099 166.896 124.619 166.624C124.139 166.336 123.619 166.192 123.059 166.192C122.483 166.192 121.955 166.336 121.475 166.624C120.995 166.896 120.611 167.272 120.323 167.752C120.051 168.216 119.915 168.736 119.915 169.312C119.915 169.888 120.059 170.424 120.347 170.92C120.635 171.4 121.011 171.792 121.475 172.096C121.955 172.384 122.483 172.528 123.059 172.528ZM148.611 175V171.136H141.435V168.256L149.619 157.96H151.827V168.232H153.939V171.136H151.827V175H148.611ZM144.675 168.232H148.971V162.808L144.675 168.232ZM163.729 175.24C162.497 175.24 161.385 174.976 160.393 174.448C159.417 173.904 158.665 173.176 158.137 172.264L159.985 170.344C160.433 170.968 160.993 171.464 161.665 171.832C162.337 172.2 163.033 172.384 163.753 172.384C164.617 172.384 165.321 172.12 165.865 171.592C166.425 171.064 166.705 170.376 166.705 169.528C166.705 168.712 166.441 168.048 165.913 167.536C165.385 167.008 164.729 166.744 163.945 166.744C163.433 166.744 162.945 166.864 162.481 167.104C162.017 167.344 161.649 167.672 161.377 168.088H158.569L160.537 157.96H168.937V160.888H162.865L162.193 164.704C162.385 164.496 162.665 164.328 163.033 164.2C163.401 164.056 163.857 163.984 164.401 163.984C165.473 163.984 166.433 164.216 167.281 164.68C168.129 165.144 168.793 165.792 169.273 166.624C169.769 167.44 170.017 168.384 170.017 169.456C170.017 170.608 169.745 171.616 169.201 172.48C168.657 173.344 167.905 174.024 166.945 174.52C166.001 175 164.929 175.24 163.729 175.24ZM186.778 169.96C186.778 171.016 186.49 171.944 185.914 172.744C185.354 173.528 184.602 174.136 183.658 174.568C182.714 175 181.682 175.216 180.562 175.216C179.426 175.216 178.386 174.992 177.442 174.544C176.514 174.08 175.77 173.448 175.21 172.648C174.666 171.832 174.394 170.896 174.394 169.84C174.394 169.2 174.53 168.624 174.802 168.112C175.074 167.584 175.41 167.136 175.81 166.768C176.226 166.4 176.642 166.104 177.058 165.88C176.466 165.592 175.962 165.16 175.546 164.584C175.13 164.008 174.922 163.376 174.922 162.688C174.922 161.92 175.09 161.248 175.426 160.672C175.762 160.08 176.21 159.584 176.77 159.184C177.33 158.784 177.938 158.48 178.594 158.272C179.266 158.064 179.93 157.96 180.586 157.96C181.226 157.96 181.882 158.064 182.554 158.272C183.226 158.464 183.842 158.76 184.402 159.16C184.962 159.56 185.41 160.056 185.746 160.648C186.098 161.224 186.274 161.896 186.274 162.664C186.274 163.352 186.058 163.992 185.626 164.584C185.194 165.176 184.674 165.608 184.066 165.88C184.77 166.232 185.394 166.76 185.938 167.464C186.498 168.152 186.778 168.984 186.778 169.96ZM178.186 162.784C178.186 163.216 178.306 163.584 178.546 163.888C178.786 164.192 179.09 164.424 179.458 164.584C179.826 164.728 180.202 164.8 180.586 164.8C180.954 164.8 181.322 164.728 181.69 164.584C182.058 164.424 182.362 164.192 182.602 163.888C182.858 163.584 182.986 163.208 182.986 162.76C182.986 162.168 182.746 161.696 182.266 161.344C181.786 160.992 181.218 160.816 180.562 160.816C179.922 160.816 179.362 161 178.882 161.368C178.418 161.72 178.186 162.192 178.186 162.784ZM183.514 169.768C183.514 169.224 183.37 168.768 183.082 168.4C182.794 168.016 182.426 167.728 181.978 167.536C181.53 167.328 181.058 167.224 180.562 167.224C180.05 167.224 179.57 167.328 179.122 167.536C178.69 167.744 178.338 168.04 178.066 168.424C177.794 168.808 177.658 169.256 177.658 169.768C177.658 170.28 177.802 170.728 178.09 171.112C178.378 171.48 178.746 171.776 179.194 172C179.642 172.208 180.106 172.312 180.586 172.312C181.098 172.312 181.57 172.2 182.002 171.976C182.45 171.752 182.81 171.456 183.082 171.088C183.37 170.704 183.514 170.264 183.514 169.768ZM211.827 169.96C211.827 171.016 211.539 171.944 210.963 172.744C210.403 173.528 209.651 174.136 208.707 174.568C207.763 175 206.731 175.216 205.611 175.216C204.475 175.216 203.435 174.992 202.491 174.544C201.563 174.08 200.819 173.448 200.259 172.648C199.715 171.832 199.443 170.896 199.443 169.84C199.443 169.2 199.579 168.624 199.851 168.112C200.123 167.584 200.459 167.136 200.859 166.768C201.275 166.4 201.691 166.104 202.107 165.88C201.515 165.592 201.011 165.16 200.595 164.584C200.179 164.008 199.971 163.376 199.971 162.688C199.971 161.92 200.139 161.248 200.475 160.672C200.811 160.08 201.259 159.584 201.819 159.184C202.379 158.784 202.987 158.48 203.643 158.272C204.315 158.064 204.979 157.96 205.635 157.96C206.275 157.96 206.931 158.064 207.603 158.272C208.275 158.464 208.891 158.76 209.451 159.16C210.011 159.56 210.459 160.056 210.795 160.648C211.147 161.224 211.323 161.896 211.323 162.664C211.323 163.352 211.107 163.992 210.675 164.584C210.243 165.176 209.723 165.608 209.115 165.88C209.819 166.232 210.443 166.76 210.987 167.464C211.547 168.152 211.827 168.984 211.827 169.96ZM203.235 162.784C203.235 163.216 203.355 163.584 203.595 163.888C203.835 164.192 204.139 164.424 204.507 164.584C204.875 164.728 205.251 164.8 205.635 164.8C206.003 164.8 206.371 164.728 206.739 164.584C207.107 164.424 207.411 164.192 207.651 163.888C207.907 163.584 208.035 163.208 208.035 162.76C208.035 162.168 207.795 161.696 207.315 161.344C206.835 160.992 206.267 160.816 205.611 160.816C204.971 160.816 204.411 161 203.931 161.368C203.467 161.72 203.235 162.192 203.235 162.784ZM208.563 169.768C208.563 169.224 208.419 168.768 208.131 168.4C207.843 168.016 207.475 167.728 207.027 167.536C206.579 167.328 206.107 167.224 205.611 167.224C205.099 167.224 204.619 167.328 204.171 167.536C203.739 167.744 203.387 168.04 203.115 168.424C202.843 168.808 202.707 169.256 202.707 169.768C202.707 170.28 202.851 170.728 203.139 171.112C203.427 171.48 203.795 171.776 204.243 172C204.691 172.208 205.155 172.312 205.635 172.312C206.147 172.312 206.619 172.2 207.051 171.976C207.499 171.752 207.859 171.456 208.131 171.088C208.419 170.704 208.563 170.264 208.563 169.768ZM216.256 175C216.256 173.704 216.368 172.608 216.592 171.712C216.832 170.8 217.208 170.024 217.72 169.384C218.248 168.728 218.944 168.136 219.808 167.608C220.368 167.272 220.944 166.96 221.536 166.672C222.144 166.368 222.704 166.056 223.216 165.736C223.744 165.4 224.168 165.016 224.488 164.584C224.824 164.136 224.992 163.6 224.992 162.976C224.992 162.272 224.768 161.712 224.32 161.296C223.888 160.864 223.272 160.648 222.472 160.648C221.864 160.648 221.296 160.76 220.768 160.984C220.256 161.192 219.792 161.456 219.376 161.776C218.976 162.08 218.632 162.384 218.344 162.688L216.328 160.576C216.616 160.24 217.056 159.856 217.648 159.424C218.256 158.976 219 158.584 219.88 158.248C220.76 157.912 221.76 157.744 222.88 157.744C224.128 157.744 225.176 157.968 226.024 158.416C226.872 158.848 227.512 159.448 227.944 160.216C228.392 160.968 228.616 161.84 228.616 162.832C228.616 163.792 228.408 164.608 227.992 165.28C227.592 165.936 227.072 166.496 226.432 166.96C225.792 167.424 225.128 167.856 224.44 168.256C223.336 168.848 222.496 169.352 221.92 169.768C221.36 170.184 220.96 170.576 220.72 170.944C220.48 171.296 220.288 171.68 220.144 172.096H228.64V175H216.256ZM245.881 169.312C245.881 170.416 245.601 171.416 245.041 172.312C244.497 173.208 243.753 173.92 242.809 174.448C241.881 174.976 240.825 175.24 239.641 175.24C238.361 175.24 237.249 174.928 236.305 174.304C235.361 173.68 234.633 172.784 234.121 171.616C233.625 170.448 233.377 169.048 233.377 167.416C233.377 164.312 233.969 161.944 235.153 160.312C236.353 158.664 237.961 157.84 239.977 157.84C241.049 157.84 242.033 158.072 242.929 158.536C243.841 159 244.609 159.664 245.233 160.528L243.385 162.544C243.001 161.952 242.505 161.488 241.897 161.152C241.289 160.8 240.633 160.624 239.929 160.624C238.857 160.624 238.001 161.056 237.361 161.92C236.721 162.768 236.385 163.96 236.353 165.496C236.689 164.92 237.169 164.464 237.793 164.128C238.417 163.792 239.129 163.624 239.929 163.624C241.049 163.624 242.057 163.88 242.953 164.392C243.849 164.888 244.561 165.568 245.089 166.432C245.617 167.28 245.881 168.24 245.881 169.312ZM239.665 172.528C240.225 172.528 240.745 172.384 241.225 172.096C241.705 171.792 242.089 171.4 242.377 170.92C242.665 170.424 242.809 169.888 242.809 169.312C242.809 168.736 242.665 168.216 242.377 167.752C242.089 167.272 241.705 166.896 241.225 166.624C240.745 166.336 240.225 166.192 239.665 166.192C239.089 166.192 238.561 166.336 238.081 166.624C237.601 166.896 237.217 167.272 236.929 167.752C236.657 168.216 236.521 168.736 236.521 169.312C236.521 169.888 236.665 170.424 236.953 170.92C237.241 171.4 237.617 171.792 238.081 172.096C238.561 172.384 239.089 172.528 239.665 172.528Z" fill="#5D5D5D"/>
<path d="M70.1094 156.172L65.2344 155.047C64.7188 154.906 64.1562 155.188 63.9219 155.703L61.6719 160.953C61.4844 161.422 61.625 161.938 62 162.266L64.8594 164.609C63.1719 168.172 60.2188 171.172 56.5625 172.906L54.2188 170.047C53.8906 169.672 53.375 169.531 52.9062 169.719L47.6562 171.969C47.1406 172.203 46.9062 172.766 47 173.281L48.125 178.156C48.2656 178.672 48.6875 179 49.25 179C61.25 179 71 169.297 71 157.25C71 156.734 70.625 156.312 70.1094 156.172Z" fill="black"/>
</svg>
