<svg width="338" height="251" viewBox="0 0 338 251" fill="none" xmlns="http://www.w3.org/2000/svg">
<g filter="url(#filter0_d)">
<rect x="4" width="330" height="243" rx="15" fill="#F3F3BF"/>
<path d="M51.2324 51.84H61.3124V53.424H53.2124V65.124H59.8724V66.636H53.2124V79.452H61.4204V81H51.2324V51.84ZM67.4532 79.596L74.9772 61.668H68.2452V60.192H76.9212V61.452L69.4692 79.524H76.8132V81H67.4532V79.596ZM88.5562 81.324C87.3802 81.324 86.4082 81.096 85.6402 80.64C84.8722 80.184 84.2842 79.368 83.8762 78.192C83.4682 77.016 83.2642 75.384 83.2642 73.296V67.752C83.2642 65.664 83.4682 64.044 83.8762 62.892C84.3082 61.74 84.9082 60.948 85.6762 60.516C86.4442 60.084 87.4162 59.868 88.5922 59.868C89.8882 59.868 90.9082 60.144 91.6522 60.696C92.3962 61.248 92.9242 62.124 93.2362 63.324C93.5482 64.5 93.7042 66.108 93.7042 68.148V70.128H85.1722V73.44C85.1722 75.096 85.2802 76.392 85.4962 77.328C85.7362 78.264 86.0962 78.924 86.5762 79.308C87.0562 79.692 87.7162 79.884 88.5562 79.884C89.5402 79.884 90.3322 79.608 90.9322 79.056C91.5322 78.48 91.8322 77.304 91.8322 75.528V73.98H93.7042V75.348C93.7042 77.268 93.3082 78.744 92.5162 79.776C91.7482 80.808 90.4282 81.324 88.5562 81.324ZM91.8322 68.976V67.356C91.8322 65.94 91.7602 64.812 91.6162 63.972C91.4722 63.132 91.1602 62.484 90.6802 62.028C90.2242 61.548 89.5282 61.308 88.5922 61.308C87.7762 61.308 87.1162 61.476 86.6122 61.812C86.1322 62.148 85.7722 62.76 85.5322 63.648C85.2922 64.536 85.1722 65.784 85.1722 67.392V68.976H91.8322ZM109.181 79.416C108.101 80.688 106.865 81.324 105.473 81.324C104.273 81.324 103.313 81.024 102.593 80.424C101.897 79.824 101.381 78.888 101.045 77.616C100.733 76.32 100.577 74.604 100.577 72.468V68.76C100.577 65.664 100.925 63.408 101.621 61.992C102.317 60.576 103.577 59.868 105.401 59.868C106.193 59.868 106.913 60.06 107.561 60.444C108.209 60.804 108.749 61.26 109.181 61.812V60.192H111.089V87.84H109.181V79.416ZM105.761 79.848C106.985 79.848 108.125 79.248 109.181 78.048V63.18C108.005 61.956 106.841 61.344 105.689 61.344C104.825 61.344 104.165 61.584 103.709 62.064C103.253 62.52 102.941 63.24 102.773 64.224C102.605 65.208 102.521 66.564 102.521 68.292V72.612C102.521 74.388 102.605 75.792 102.773 76.824C102.965 77.856 103.289 78.624 103.745 79.128C104.225 79.608 104.897 79.848 105.761 79.848ZM121.87 81.324C120.862 81.324 120.058 80.964 119.458 80.244C118.882 79.5 118.594 78.348 118.594 76.788V60.192H120.502V76.572C120.502 77.772 120.682 78.624 121.042 79.128C121.426 79.608 121.978 79.848 122.698 79.848C123.418 79.848 124.15 79.62 124.894 79.164C125.638 78.708 126.334 78.096 126.982 77.328V60.192H128.854V81H126.982V78.552C126.31 79.416 125.53 80.1 124.642 80.604C123.754 81.084 122.83 81.324 121.87 81.324ZM136.865 54.144H138.809V57.456H136.865V54.144ZM136.865 60.192H138.809V81H136.865V60.192ZM151.894 81.324C150.718 81.324 149.746 81.096 148.978 80.64C148.21 80.184 147.622 79.368 147.214 78.192C146.806 77.016 146.602 75.384 146.602 73.296V67.752C146.602 65.664 146.806 64.044 147.214 62.892C147.646 61.74 148.246 60.948 149.014 60.516C149.782 60.084 150.754 59.868 151.93 59.868C153.226 59.868 154.246 60.144 154.99 60.696C155.734 61.248 156.262 62.124 156.574 63.324C156.886 64.5 157.042 66.108 157.042 68.148V70.128H148.51V73.44C148.51 75.096 148.618 76.392 148.834 77.328C149.074 78.264 149.434 78.924 149.914 79.308C150.394 79.692 151.054 79.884 151.894 79.884C152.878 79.884 153.67 79.608 154.27 79.056C154.87 78.48 155.17 77.304 155.17 75.528V73.98H157.042V75.348C157.042 77.268 156.646 78.744 155.854 79.776C155.086 80.808 153.766 81.324 151.894 81.324ZM155.17 68.976V67.356C155.17 65.94 155.098 64.812 154.954 63.972C154.81 63.132 154.498 62.484 154.018 62.028C153.562 61.548 152.866 61.308 151.93 61.308C151.114 61.308 150.454 61.476 149.95 61.812C149.47 62.148 149.11 62.76 148.87 63.648C148.63 64.536 148.51 65.784 148.51 67.392V68.976H155.17ZM164.598 51.84H166.506V81H164.598V51.84ZM189.438 81.324C188.238 81.324 187.278 81.024 186.558 80.424C185.862 79.824 185.346 78.888 185.01 77.616C184.698 76.32 184.542 74.604 184.542 72.468V68.76C184.542 66.696 184.674 65.028 184.938 63.756C185.226 62.46 185.718 61.488 186.414 60.84C187.11 60.192 188.082 59.868 189.33 59.868C190.146 59.868 190.866 60.048 191.49 60.408C192.138 60.768 192.678 61.224 193.11 61.776V51.84H195.018V81H193.11V79.416C192.03 80.688 190.806 81.324 189.438 81.324ZM189.69 79.848C190.338 79.848 190.95 79.68 191.526 79.344C192.126 79.008 192.654 78.588 193.11 78.084V63.144C191.91 61.944 190.758 61.344 189.654 61.344C188.766 61.344 188.094 61.584 187.638 62.064C187.182 62.52 186.87 63.24 186.702 64.224C186.534 65.208 186.45 66.564 186.45 68.292V72.612C186.45 74.364 186.534 75.756 186.702 76.788C186.894 77.82 187.218 78.588 187.674 79.092C188.154 79.596 188.826 79.848 189.69 79.848ZM207.637 81.324C206.461 81.324 205.489 81.096 204.721 80.64C203.953 80.184 203.365 79.368 202.957 78.192C202.549 77.016 202.345 75.384 202.345 73.296V67.752C202.345 65.664 202.549 64.044 202.957 62.892C203.389 61.74 203.989 60.948 204.757 60.516C205.525 60.084 206.497 59.868 207.673 59.868C208.969 59.868 209.989 60.144 210.733 60.696C211.477 61.248 212.005 62.124 212.317 63.324C212.629 64.5 212.785 66.108 212.785 68.148V70.128H204.253V73.44C204.253 75.096 204.361 76.392 204.577 77.328C204.817 78.264 205.177 78.924 205.657 79.308C206.137 79.692 206.797 79.884 207.637 79.884C208.621 79.884 209.413 79.608 210.013 79.056C210.613 78.48 210.913 77.304 210.913 75.528V73.98H212.785V75.348C212.785 77.268 212.389 78.744 211.597 79.776C210.829 80.808 209.509 81.324 207.637 81.324ZM210.913 68.976V67.356C210.913 65.94 210.841 64.812 210.697 63.972C210.553 63.132 210.241 62.484 209.761 62.028C209.305 61.548 208.609 61.308 207.673 61.308C206.857 61.308 206.197 61.476 205.693 61.812C205.213 62.148 204.853 62.76 204.613 63.648C204.373 64.536 204.253 65.784 204.253 67.392V68.976H210.913ZM220.342 51.84H222.25V81H220.342V51.84ZM241.33 51.84H248.386C250.786 51.84 252.454 52.476 253.39 53.748C254.326 55.02 254.794 56.784 254.794 59.04C254.794 60.936 254.482 62.496 253.858 63.72C253.258 64.944 252.142 65.688 250.51 65.952L255.19 81H253.246L248.71 66.312H243.274V81H241.33V51.84ZM248.314 64.8C250.066 64.8 251.266 64.332 251.914 63.396C252.562 62.436 252.886 60.984 252.886 59.04C252.886 57.072 252.55 55.644 251.878 54.756C251.23 53.844 250.03 53.388 248.278 53.388H243.274V64.8H248.314ZM262.851 60.192H264.759V81H262.851V60.192ZM265.659 51.48H267.603L264.363 58.464H263.355L265.659 51.48ZM277.526 81.324C275.534 81.324 274.166 80.7 273.422 79.452C272.678 78.18 272.306 76.164 272.306 73.404V67.788C272.306 65.052 272.678 63.048 273.422 61.776C274.166 60.504 275.534 59.868 277.526 59.868C279.518 59.868 280.886 60.504 281.63 61.776C282.398 63.024 282.782 65.028 282.782 67.788V73.404C282.782 76.164 282.398 78.18 281.63 79.452C280.886 80.7 279.518 81.324 277.526 81.324ZM277.526 79.884C278.486 79.884 279.206 79.644 279.686 79.164C280.19 78.66 280.514 77.964 280.658 77.076C280.802 76.188 280.874 74.988 280.874 73.476V67.716C280.874 66.204 280.802 65.004 280.658 64.116C280.514 63.228 280.19 62.544 279.686 62.064C279.206 61.56 278.486 61.308 277.526 61.308C276.566 61.308 275.846 61.56 275.366 62.064C274.886 62.544 274.574 63.228 274.43 64.116C274.286 64.98 274.214 66.18 274.214 67.716V73.476C274.214 75.012 274.286 76.224 274.43 77.112C274.574 77.976 274.886 78.66 275.366 79.164C275.846 79.644 276.566 79.884 277.526 79.884Z" fill="black"/>
<path d="M48.5684 84.6H284.438V86.4H48.5684V84.6Z" fill="black"/>
<path d="M74.8313 119.953C73.7531 120.797 72.3938 121.828 67.6125 125.297C66.675 126 64.9406 127.547 63.3 127.547C61.6125 127.547 59.925 126 58.9406 125.297C54.1594 121.828 52.8 120.797 51.7219 119.953C51.5344 119.812 51.3 119.953 51.3 120.188V129.75C51.3 131.016 52.2844 132 53.55 132H73.05C74.2688 132 75.3 131.016 75.3 129.75V120.188C75.3 119.953 75.0188 119.812 74.8313 119.953ZM63.3 126C64.3781 126.047 65.925 124.641 66.7219 124.078C72.9563 119.578 73.425 119.156 74.8313 118.031C75.1125 117.844 75.3 117.516 75.3 117.141V116.25C75.3 115.031 74.2688 114 73.05 114H53.55C52.2844 114 51.3 115.031 51.3 116.25V117.141C51.3 117.516 51.4406 117.844 51.7219 118.031C53.1281 119.156 53.5969 119.578 59.8313 124.078C60.6281 124.641 62.175 126.047 63.3 126Z" fill="black"/>
<path d="M91.864 128.16C90.9573 128.16 90.1733 127.963 89.512 127.568C88.8613 127.173 88.3547 126.651 87.992 126C87.6293 125.339 87.448 124.624 87.448 123.856C87.448 123.067 87.624 122.341 87.976 121.68C88.3387 121.008 88.8507 120.475 89.512 120.08C90.1733 119.675 90.9627 119.472 91.88 119.472C92.7973 119.472 93.5813 119.675 94.232 120.08C94.8827 120.475 95.3787 121.003 95.72 121.664C96.072 122.315 96.248 123.019 96.248 123.776C96.248 124.053 96.232 124.293 96.2 124.496H89.72C89.7733 125.147 90.0133 125.659 90.44 126.032C90.8773 126.405 91.3787 126.592 91.944 126.592C92.3707 126.592 92.7707 126.491 93.144 126.288C93.528 126.075 93.7893 125.797 93.928 125.456L95.768 125.968C95.4587 126.608 94.9627 127.136 94.28 127.552C93.5973 127.957 92.792 128.16 91.864 128.16ZM89.672 123.136H94.056C93.992 122.507 93.752 122 93.336 121.616C92.9307 121.221 92.4347 121.024 91.848 121.024C91.272 121.024 90.776 121.221 90.36 121.616C89.9547 122 89.7253 122.507 89.672 123.136ZM98.5004 126.688L103.124 121.12H98.6924V119.616H105.428V120.928L100.836 126.496H105.508V128H98.5004V126.688ZM112.298 128.16C111.392 128.16 110.608 127.963 109.946 127.568C109.296 127.173 108.789 126.651 108.426 126C108.064 125.339 107.882 124.624 107.882 123.856C107.882 123.067 108.058 122.341 108.41 121.68C108.773 121.008 109.285 120.475 109.946 120.08C110.608 119.675 111.397 119.472 112.314 119.472C113.232 119.472 114.016 119.675 114.666 120.08C115.317 120.475 115.813 121.003 116.154 121.664C116.506 122.315 116.682 123.019 116.682 123.776C116.682 124.053 116.666 124.293 116.634 124.496H110.154C110.208 125.147 110.448 125.659 110.874 126.032C111.312 126.405 111.813 126.592 112.378 126.592C112.805 126.592 113.205 126.491 113.578 126.288C113.962 126.075 114.224 125.797 114.362 125.456L116.202 125.968C115.893 126.608 115.397 127.136 114.714 127.552C114.032 127.957 113.226 128.16 112.298 128.16ZM110.106 123.136H114.49C114.426 122.507 114.186 122 113.77 121.616C113.365 121.221 112.869 121.024 112.282 121.024C111.706 121.024 111.21 121.221 110.794 121.616C110.389 122 110.16 122.507 110.106 123.136ZM119.54 128V125.696H121.3V128H119.54ZM124.27 123.808C124.27 123.008 124.43 122.277 124.75 121.616C125.07 120.955 125.513 120.432 126.078 120.048C126.644 119.664 127.289 119.472 128.014 119.472C128.633 119.472 129.188 119.627 129.678 119.936C130.18 120.235 130.569 120.619 130.846 121.088V116.32H132.99V125.6C132.99 125.835 133.028 126 133.102 126.096C133.177 126.181 133.305 126.235 133.486 126.256V128C133.102 128.075 132.798 128.112 132.574 128.112C132.19 128.112 131.87 128.016 131.614 127.824C131.369 127.632 131.23 127.381 131.198 127.072L131.166 126.544C130.857 127.067 130.436 127.467 129.902 127.744C129.38 128.021 128.83 128.16 128.254 128.16C127.476 128.16 126.788 127.968 126.19 127.584C125.593 127.189 125.124 126.667 124.782 126.016C124.441 125.355 124.27 124.619 124.27 123.808ZM130.846 124.928V122.928C130.676 122.459 130.382 122.069 129.966 121.76C129.55 121.451 129.124 121.296 128.686 121.296C128.249 121.296 127.865 121.419 127.534 121.664C127.204 121.899 126.948 122.213 126.766 122.608C126.585 122.992 126.494 123.408 126.494 123.856C126.494 124.315 126.596 124.736 126.798 125.12C127.001 125.493 127.273 125.792 127.614 126.016C127.966 126.229 128.366 126.336 128.814 126.336C129.22 126.336 129.62 126.203 130.014 125.936C130.42 125.669 130.697 125.333 130.846 124.928ZM140.583 128.16C139.676 128.16 138.892 127.963 138.231 127.568C137.58 127.173 137.073 126.651 136.711 126C136.348 125.339 136.167 124.624 136.167 123.856C136.167 123.067 136.343 122.341 136.695 121.68C137.057 121.008 137.569 120.475 138.231 120.08C138.892 119.675 139.681 119.472 140.599 119.472C141.516 119.472 142.3 119.675 142.951 120.08C143.601 120.475 144.097 121.003 144.439 121.664C144.791 122.315 144.967 123.019 144.967 123.776C144.967 124.053 144.951 124.293 144.919 124.496H138.439C138.492 125.147 138.732 125.659 139.159 126.032C139.596 126.405 140.097 126.592 140.663 126.592C141.089 126.592 141.489 126.491 141.863 126.288C142.247 126.075 142.508 125.797 142.647 125.456L144.487 125.968C144.177 126.608 143.681 127.136 142.999 127.552C142.316 127.957 141.511 128.16 140.583 128.16ZM138.391 123.136H142.775C142.711 122.507 142.471 122 142.055 121.616C141.649 121.221 141.153 121.024 140.567 121.024C139.991 121.024 139.495 121.221 139.079 121.616C138.673 122 138.444 122.507 138.391 123.136ZM147.857 116.32H150.001V125.312C150.001 125.707 150.065 125.968 150.193 126.096C150.321 126.224 150.497 126.288 150.721 126.288C150.892 126.288 151.068 126.267 151.249 126.224C151.43 126.181 151.59 126.128 151.729 126.064L152.017 127.696C151.729 127.835 151.393 127.941 151.009 128.016C150.625 128.091 150.278 128.128 149.969 128.128C149.297 128.128 148.774 127.952 148.401 127.6C148.038 127.237 147.857 126.725 147.857 126.064V116.32ZM159.543 121.472C158.892 121.472 158.311 121.6 157.799 121.856C157.287 122.101 156.919 122.459 156.695 122.928V128H154.551V119.616H156.519V121.408C156.807 120.832 157.18 120.379 157.639 120.048C158.108 119.717 158.599 119.536 159.111 119.504C159.335 119.504 159.479 119.509 159.543 119.52V121.472ZM162.339 118.448V116.32H164.483V118.448H162.339ZM162.339 128V119.616H164.483V128H162.339ZM171.889 128.16C170.971 128.16 170.182 127.963 169.521 127.568C168.87 127.163 168.369 126.629 168.017 125.968C167.665 125.307 167.489 124.592 167.489 123.824C167.489 123.045 167.665 122.325 168.017 121.664C168.379 121.003 168.886 120.475 169.537 120.08C170.198 119.675 170.982 119.472 171.889 119.472C172.795 119.472 173.574 119.675 174.225 120.08C174.886 120.475 175.393 121.003 175.745 121.664C176.097 122.325 176.273 123.045 176.273 123.824C176.273 124.592 176.097 125.307 175.745 125.968C175.393 126.629 174.886 127.163 174.225 127.568C173.574 127.963 172.795 128.16 171.889 128.16ZM169.697 123.824C169.697 124.315 169.793 124.752 169.985 125.136C170.177 125.509 170.438 125.803 170.769 126.016C171.099 126.229 171.473 126.336 171.889 126.336C172.294 126.336 172.662 126.229 172.993 126.016C173.323 125.792 173.585 125.493 173.777 125.12C173.979 124.736 174.081 124.299 174.081 123.808C174.081 123.328 173.979 122.901 173.777 122.528C173.585 122.144 173.323 121.845 172.993 121.632C172.662 121.408 172.294 121.296 171.889 121.296C171.473 121.296 171.099 121.408 170.769 121.632C170.438 121.845 170.177 122.144 169.985 122.528C169.793 122.901 169.697 123.333 169.697 123.824ZM185.096 118.352C185.874 118.352 186.621 118.485 187.336 118.752C188.061 119.008 188.701 119.397 189.256 119.92C189.821 120.432 190.264 121.067 190.584 121.824C190.904 122.581 191.064 123.456 191.064 124.448C191.064 124.629 191.053 124.875 191.032 125.184C191.01 125.493 190.957 125.824 190.872 126.176C190.786 126.528 190.653 126.864 190.472 127.184C190.29 127.493 190.045 127.749 189.736 127.952C189.437 128.155 189.058 128.256 188.6 128.256C188.216 128.256 187.917 128.187 187.704 128.048C187.501 127.92 187.352 127.755 187.256 127.552C187.16 127.349 187.101 127.147 187.08 126.944C186.749 127.275 186.344 127.541 185.864 127.744C185.394 127.936 184.893 128.032 184.36 128.032C183.57 128.032 182.962 127.824 182.536 127.408C182.12 126.992 181.912 126.453 181.912 125.792C181.912 125.205 182.056 124.741 182.344 124.4C182.642 124.059 183.021 123.819 183.48 123.68C183.938 123.531 184.413 123.456 184.904 123.456C185.33 123.456 185.698 123.499 186.008 123.584C186.317 123.669 186.552 123.744 186.712 123.808C186.712 123.221 186.589 122.747 186.344 122.384C186.098 122.021 185.613 121.84 184.888 121.84C184.45 121.84 184.05 121.904 183.688 122.032C183.325 122.16 183.016 122.331 182.76 122.544L182.344 121.408C183.154 120.875 184.072 120.608 185.096 120.608C185.789 120.608 186.328 120.715 186.712 120.928C187.106 121.131 187.394 121.403 187.576 121.744C187.757 122.075 187.869 122.437 187.912 122.832C187.965 123.216 187.992 123.589 187.992 123.952V125.488C187.992 125.797 188.008 126.091 188.04 126.368C188.072 126.645 188.141 126.869 188.248 127.04C188.365 127.211 188.552 127.296 188.808 127.296C189.096 127.296 189.33 127.189 189.512 126.976C189.693 126.763 189.832 126.501 189.928 126.192C190.024 125.872 190.088 125.552 190.12 125.232C190.152 124.912 190.168 124.64 190.168 124.416C190.168 123.424 189.949 122.539 189.512 121.76C189.085 120.971 188.482 120.352 187.704 119.904C186.936 119.445 186.045 119.216 185.032 119.216C184.029 119.216 183.144 119.435 182.376 119.872C181.608 120.309 181.005 120.917 180.568 121.696C180.13 122.464 179.912 123.339 179.912 124.32C179.912 125.269 180.114 126.139 180.52 126.928C180.936 127.707 181.512 128.325 182.248 128.784C182.994 129.243 183.864 129.472 184.856 129.472C185.357 129.472 185.8 129.413 186.184 129.296C186.568 129.179 186.957 129.035 187.352 128.864L187.608 129.696C187.17 129.909 186.712 130.069 186.232 130.176C185.762 130.283 185.293 130.336 184.824 130.336C184.024 130.336 183.272 130.192 182.568 129.904C181.874 129.616 181.261 129.205 180.728 128.672C180.194 128.139 179.773 127.504 179.464 126.768C179.165 126.032 179.016 125.216 179.016 124.32C179.016 123.371 179.181 122.528 179.512 121.792C179.842 121.056 180.29 120.432 180.856 119.92C181.421 119.408 182.066 119.019 182.792 118.752C183.528 118.485 184.296 118.352 185.096 118.352ZM185.88 126.608C186.168 126.469 186.376 126.299 186.504 126.096C186.632 125.883 186.696 125.659 186.696 125.424V124.816C186.546 124.773 186.306 124.709 185.976 124.624C185.656 124.528 185.298 124.48 184.904 124.48C184.402 124.48 183.992 124.581 183.672 124.784C183.352 124.976 183.192 125.296 183.192 125.744C183.192 126.107 183.304 126.395 183.528 126.608C183.762 126.821 184.082 126.928 184.488 126.928C184.701 126.928 184.936 126.901 185.192 126.848C185.448 126.795 185.677 126.715 185.88 126.608ZM197.715 128.048C196.969 128.048 196.313 127.856 195.747 127.472C195.182 127.088 194.739 126.576 194.419 125.936C194.099 125.285 193.939 124.576 193.939 123.808C193.939 122.997 194.105 122.267 194.435 121.616C194.766 120.955 195.225 120.432 195.811 120.048C196.398 119.664 197.075 119.472 197.843 119.472C198.494 119.472 199.065 119.621 199.555 119.92C200.046 120.208 200.451 120.597 200.771 121.088V119.616H202.643V127.6C202.643 128.432 202.441 129.141 202.035 129.728C201.641 130.325 201.091 130.779 200.387 131.088C199.683 131.408 198.883 131.568 197.987 131.568C197.07 131.568 196.297 131.413 195.667 131.104C195.049 130.805 194.515 130.379 194.067 129.824L195.235 128.688C195.555 129.083 195.955 129.392 196.435 129.616C196.926 129.84 197.443 129.952 197.987 129.952C198.435 129.952 198.846 129.867 199.219 129.696C199.603 129.536 199.913 129.28 200.147 128.928C200.382 128.587 200.499 128.144 200.499 127.6V126.544C200.222 127.024 199.827 127.397 199.315 127.664C198.814 127.92 198.281 128.048 197.715 128.048ZM198.435 126.336C198.905 126.336 199.326 126.197 199.699 125.92C200.083 125.643 200.35 125.312 200.499 124.928V122.928C200.307 122.437 200.003 122.043 199.587 121.744C199.182 121.445 198.755 121.296 198.307 121.296C197.87 121.296 197.486 121.419 197.155 121.664C196.835 121.909 196.585 122.229 196.403 122.624C196.222 123.008 196.131 123.424 196.131 123.872C196.131 124.331 196.233 124.747 196.435 125.12C196.638 125.493 196.91 125.792 197.251 126.016C197.603 126.229 197.998 126.336 198.435 126.336ZM219.2 128H217.056V123.296C217.056 122.635 216.939 122.149 216.704 121.84C216.48 121.52 216.165 121.36 215.76 121.36C215.333 121.36 214.933 121.525 214.56 121.856C214.187 122.176 213.92 122.597 213.76 123.12V128H211.616V123.296C211.616 122.624 211.499 122.133 211.264 121.824C211.04 121.515 210.725 121.36 210.32 121.36C209.904 121.36 209.504 121.52 209.12 121.84C208.747 122.16 208.48 122.581 208.32 123.104V128H206.176V119.616H208.112V121.168C208.421 120.624 208.843 120.208 209.376 119.92C209.92 119.621 210.539 119.472 211.232 119.472C211.925 119.472 212.464 119.643 212.848 119.984C213.243 120.325 213.493 120.747 213.6 121.248C213.931 120.672 214.363 120.235 214.896 119.936C215.429 119.627 216.027 119.472 216.688 119.472C217.211 119.472 217.632 119.568 217.952 119.76C218.283 119.941 218.539 120.192 218.72 120.512C218.901 120.821 219.024 121.173 219.088 121.568C219.163 121.963 219.2 122.363 219.2 122.768V128ZM222.091 125.52C222.091 124.976 222.24 124.501 222.539 124.096C222.848 123.68 223.275 123.36 223.819 123.136C224.363 122.912 224.987 122.8 225.691 122.8C226.043 122.8 226.4 122.832 226.763 122.896C227.125 122.949 227.44 123.029 227.707 123.136V122.688C227.707 122.155 227.547 121.744 227.227 121.456C226.917 121.168 226.453 121.024 225.835 121.024C225.376 121.024 224.939 121.104 224.523 121.264C224.107 121.424 223.669 121.659 223.211 121.968L222.523 120.56C223.077 120.197 223.643 119.925 224.219 119.744C224.805 119.563 225.419 119.472 226.059 119.472C227.253 119.472 228.181 119.771 228.843 120.368C229.515 120.965 229.851 121.819 229.851 122.928V125.6C229.851 125.835 229.888 126 229.963 126.096C230.037 126.181 230.171 126.235 230.363 126.256V128C230.171 128.043 229.995 128.069 229.835 128.08C229.685 128.101 229.557 128.112 229.451 128.112C229.024 128.112 228.699 128.016 228.475 127.824C228.251 127.632 228.117 127.397 228.075 127.12L228.027 126.688C227.653 127.168 227.195 127.536 226.651 127.792C226.117 128.037 225.568 128.16 225.003 128.16C224.437 128.16 223.936 128.048 223.499 127.824C223.061 127.589 222.715 127.275 222.459 126.88C222.213 126.475 222.091 126.021 222.091 125.52ZM227.307 125.952C227.573 125.696 227.707 125.451 227.707 125.216V124.368C227.152 124.144 226.592 124.032 226.027 124.032C225.461 124.032 225.003 124.155 224.651 124.4C224.299 124.635 224.123 124.949 224.123 125.344C224.123 125.664 224.251 125.952 224.507 126.208C224.763 126.464 225.131 126.592 225.611 126.592C225.931 126.592 226.24 126.533 226.539 126.416C226.848 126.299 227.104 126.144 227.307 125.952ZM233.454 118.448V116.32H235.598V118.448H233.454ZM233.454 128V119.616H235.598V128H233.454ZM239.116 116.32H241.26V125.312C241.26 125.707 241.324 125.968 241.452 126.096C241.58 126.224 241.756 126.288 241.98 126.288C242.151 126.288 242.327 126.267 242.508 126.224C242.69 126.181 242.85 126.128 242.988 126.064L243.276 127.696C242.988 127.835 242.652 127.941 242.268 128.016C241.884 128.091 241.538 128.128 241.228 128.128C240.556 128.128 240.034 127.952 239.66 127.6C239.298 127.237 239.116 126.725 239.116 126.064V116.32ZM245.762 128V125.696H247.522V128H245.762ZM254.736 128.16C253.83 128.16 253.046 127.957 252.384 127.552C251.723 127.147 251.211 126.613 250.848 125.952C250.486 125.291 250.304 124.576 250.304 123.808C250.304 123.029 250.48 122.309 250.832 121.648C251.195 120.987 251.707 120.459 252.368 120.064C253.03 119.669 253.814 119.472 254.72 119.472C255.638 119.472 256.416 119.669 257.056 120.064C257.707 120.459 258.192 120.976 258.512 121.616L256.416 122.256C256.043 121.616 255.472 121.296 254.704 121.296C254.288 121.296 253.915 121.403 253.584 121.616C253.254 121.819 252.992 122.112 252.8 122.496C252.608 122.869 252.512 123.307 252.512 123.808C252.512 124.299 252.608 124.736 252.8 125.12C253.003 125.493 253.27 125.792 253.6 126.016C253.931 126.229 254.299 126.336 254.704 126.336C255.088 126.336 255.44 126.245 255.76 126.064C256.091 125.872 256.32 125.632 256.448 125.344L258.544 125.984C258.256 126.613 257.776 127.136 257.104 127.552C256.443 127.957 255.654 128.16 254.736 128.16ZM265.257 128.16C264.34 128.16 263.551 127.963 262.889 127.568C262.239 127.163 261.737 126.629 261.385 125.968C261.033 125.307 260.857 124.592 260.857 123.824C260.857 123.045 261.033 122.325 261.385 121.664C261.748 121.003 262.255 120.475 262.905 120.08C263.567 119.675 264.351 119.472 265.257 119.472C266.164 119.472 266.943 119.675 267.593 120.08C268.255 120.475 268.761 121.003 269.113 121.664C269.465 122.325 269.641 123.045 269.641 123.824C269.641 124.592 269.465 125.307 269.113 125.968C268.761 126.629 268.255 127.163 267.593 127.568C266.943 127.963 266.164 128.16 265.257 128.16ZM263.065 123.824C263.065 124.315 263.161 124.752 263.353 125.136C263.545 125.509 263.807 125.803 264.137 126.016C264.468 126.229 264.841 126.336 265.257 126.336C265.663 126.336 266.031 126.229 266.361 126.016C266.692 125.792 266.953 125.493 267.145 125.12C267.348 124.736 267.449 124.299 267.449 123.808C267.449 123.328 267.348 122.901 267.145 122.528C266.953 122.144 266.692 121.845 266.361 121.632C266.031 121.408 265.663 121.296 265.257 121.296C264.841 121.296 264.468 121.408 264.137 121.632C263.807 121.845 263.545 122.144 263.353 122.528C263.161 122.901 263.065 123.333 263.065 123.824ZM285.712 128H283.568V123.296C283.568 122.635 283.451 122.149 283.216 121.84C282.992 121.52 282.678 121.36 282.272 121.36C281.846 121.36 281.446 121.525 281.072 121.856C280.699 122.176 280.432 122.597 280.272 123.12V128H278.128V123.296C278.128 122.624 278.011 122.133 277.776 121.824C277.552 121.515 277.238 121.36 276.832 121.36C276.416 121.36 276.016 121.52 275.632 121.84C275.259 122.16 274.992 122.581 274.832 123.104V128H272.688V119.616H274.624V121.168C274.934 120.624 275.355 120.208 275.888 119.92C276.432 119.621 277.051 119.472 277.744 119.472C278.438 119.472 278.976 119.643 279.36 119.984C279.755 120.325 280.006 120.747 280.112 121.248C280.443 120.672 280.875 120.235 281.408 119.936C281.942 119.627 282.539 119.472 283.2 119.472C283.723 119.472 284.144 119.568 284.464 119.76C284.795 119.941 285.051 120.192 285.232 120.512C285.414 120.821 285.536 121.173 285.6 121.568C285.675 121.963 285.712 122.363 285.712 122.768V128Z" fill="#5D5D5D"/>
<path d="M100.608 169.312C100.608 170.416 100.328 171.416 99.768 172.312C99.224 173.208 98.48 173.92 97.536 174.448C96.608 174.976 95.552 175.24 94.368 175.24C93.088 175.24 91.976 174.928 91.032 174.304C90.088 173.68 89.36 172.784 88.848 171.616C88.352 170.448 88.104 169.048 88.104 167.416C88.104 164.312 88.696 161.944 89.88 160.312C91.08 158.664 92.688 157.84 94.704 157.84C95.776 157.84 96.76 158.072 97.656 158.536C98.568 159 99.336 159.664 99.96 160.528L98.112 162.544C97.728 161.952 97.232 161.488 96.624 161.152C96.016 160.8 95.36 160.624 94.656 160.624C93.584 160.624 92.728 161.056 92.088 161.92C91.448 162.768 91.112 163.96 91.08 165.496C91.416 164.92 91.896 164.464 92.52 164.128C93.144 163.792 93.856 163.624 94.656 163.624C95.776 163.624 96.784 163.88 97.68 164.392C98.576 164.888 99.288 165.568 99.816 166.432C100.344 167.28 100.608 168.24 100.608 169.312ZM94.392 172.528C94.952 172.528 95.472 172.384 95.952 172.096C96.432 171.792 96.816 171.4 97.104 170.92C97.392 170.424 97.536 169.888 97.536 169.312C97.536 168.736 97.392 168.216 97.104 167.752C96.816 167.272 96.432 166.896 95.952 166.624C95.472 166.336 94.952 166.192 94.392 166.192C93.816 166.192 93.288 166.336 92.808 166.624C92.328 166.896 91.944 167.272 91.656 167.752C91.384 168.216 91.248 168.736 91.248 169.312C91.248 169.888 91.392 170.424 91.68 170.92C91.968 171.4 92.344 171.792 92.808 172.096C93.288 172.384 93.816 172.528 94.392 172.528ZM112.522 160.888H104.794V157.96H117.61L109.138 175H105.49L112.522 160.888ZM133.275 169.312C133.275 170.416 132.995 171.416 132.435 172.312C131.891 173.208 131.147 173.92 130.203 174.448C129.275 174.976 128.219 175.24 127.035 175.24C125.755 175.24 124.643 174.928 123.699 174.304C122.755 173.68 122.027 172.784 121.515 171.616C121.019 170.448 120.771 169.048 120.771 167.416C120.771 164.312 121.363 161.944 122.547 160.312C123.747 158.664 125.355 157.84 127.371 157.84C128.443 157.84 129.427 158.072 130.323 158.536C131.235 159 132.003 159.664 132.627 160.528L130.779 162.544C130.395 161.952 129.899 161.488 129.291 161.152C128.683 160.8 128.027 160.624 127.323 160.624C126.251 160.624 125.395 161.056 124.755 161.92C124.115 162.768 123.779 163.96 123.747 165.496C124.083 164.92 124.563 164.464 125.187 164.128C125.811 163.792 126.523 163.624 127.323 163.624C128.443 163.624 129.451 163.88 130.347 164.392C131.243 164.888 131.955 165.568 132.483 166.432C133.011 167.28 133.275 168.24 133.275 169.312ZM127.059 172.528C127.619 172.528 128.139 172.384 128.619 172.096C129.099 171.792 129.483 171.4 129.771 170.92C130.059 170.424 130.203 169.888 130.203 169.312C130.203 168.736 130.059 168.216 129.771 167.752C129.483 167.272 129.099 166.896 128.619 166.624C128.139 166.336 127.619 166.192 127.059 166.192C126.483 166.192 125.955 166.336 125.475 166.624C124.995 166.896 124.611 167.272 124.323 167.752C124.051 168.216 123.915 168.736 123.915 169.312C123.915 169.888 124.059 170.424 124.347 170.92C124.635 171.4 125.011 171.792 125.475 172.096C125.955 172.384 126.483 172.528 127.059 172.528ZM152.611 175V171.136H145.435V168.256L153.619 157.96H155.827V168.232H157.939V171.136H155.827V175H152.611ZM148.675 168.232H152.971V162.808L148.675 168.232ZM167.729 175.24C166.497 175.24 165.385 174.976 164.393 174.448C163.417 173.904 162.665 173.176 162.137 172.264L163.985 170.344C164.433 170.968 164.993 171.464 165.665 171.832C166.337 172.2 167.033 172.384 167.753 172.384C168.617 172.384 169.321 172.12 169.865 171.592C170.425 171.064 170.705 170.376 170.705 169.528C170.705 168.712 170.441 168.048 169.913 167.536C169.385 167.008 168.729 166.744 167.945 166.744C167.433 166.744 166.945 166.864 166.481 167.104C166.017 167.344 165.649 167.672 165.377 168.088H162.569L164.537 157.96H172.937V160.888H166.865L166.193 164.704C166.385 164.496 166.665 164.328 167.033 164.2C167.401 164.056 167.857 163.984 168.401 163.984C169.473 163.984 170.433 164.216 171.281 164.68C172.129 165.144 172.793 165.792 173.273 166.624C173.769 167.44 174.017 168.384 174.017 169.456C174.017 170.608 173.745 171.616 173.201 172.48C172.657 173.344 171.905 174.024 170.945 174.52C170.001 175 168.929 175.24 167.729 175.24ZM190.778 169.96C190.778 171.016 190.49 171.944 189.914 172.744C189.354 173.528 188.602 174.136 187.658 174.568C186.714 175 185.682 175.216 184.562 175.216C183.426 175.216 182.386 174.992 181.442 174.544C180.514 174.08 179.77 173.448 179.21 172.648C178.666 171.832 178.394 170.896 178.394 169.84C178.394 169.2 178.53 168.624 178.802 168.112C179.074 167.584 179.41 167.136 179.81 166.768C180.226 166.4 180.642 166.104 181.058 165.88C180.466 165.592 179.962 165.16 179.546 164.584C179.13 164.008 178.922 163.376 178.922 162.688C178.922 161.92 179.09 161.248 179.426 160.672C179.762 160.08 180.21 159.584 180.77 159.184C181.33 158.784 181.938 158.48 182.594 158.272C183.266 158.064 183.93 157.96 184.586 157.96C185.226 157.96 185.882 158.064 186.554 158.272C187.226 158.464 187.842 158.76 188.402 159.16C188.962 159.56 189.41 160.056 189.746 160.648C190.098 161.224 190.274 161.896 190.274 162.664C190.274 163.352 190.058 163.992 189.626 164.584C189.194 165.176 188.674 165.608 188.066 165.88C188.77 166.232 189.394 166.76 189.938 167.464C190.498 168.152 190.778 168.984 190.778 169.96ZM182.186 162.784C182.186 163.216 182.306 163.584 182.546 163.888C182.786 164.192 183.09 164.424 183.458 164.584C183.826 164.728 184.202 164.8 184.586 164.8C184.954 164.8 185.322 164.728 185.69 164.584C186.058 164.424 186.362 164.192 186.602 163.888C186.858 163.584 186.986 163.208 186.986 162.76C186.986 162.168 186.746 161.696 186.266 161.344C185.786 160.992 185.218 160.816 184.562 160.816C183.922 160.816 183.362 161 182.882 161.368C182.418 161.72 182.186 162.192 182.186 162.784ZM187.514 169.768C187.514 169.224 187.37 168.768 187.082 168.4C186.794 168.016 186.426 167.728 185.978 167.536C185.53 167.328 185.058 167.224 184.562 167.224C184.05 167.224 183.57 167.328 183.122 167.536C182.69 167.744 182.338 168.04 182.066 168.424C181.794 168.808 181.658 169.256 181.658 169.768C181.658 170.28 181.802 170.728 182.09 171.112C182.378 171.48 182.746 171.776 183.194 172C183.642 172.208 184.106 172.312 184.586 172.312C185.098 172.312 185.57 172.2 186.002 171.976C186.45 171.752 186.81 171.456 187.082 171.088C187.37 170.704 187.514 170.264 187.514 169.768ZM215.827 169.96C215.827 171.016 215.539 171.944 214.963 172.744C214.403 173.528 213.651 174.136 212.707 174.568C211.763 175 210.731 175.216 209.611 175.216C208.475 175.216 207.435 174.992 206.491 174.544C205.563 174.08 204.819 173.448 204.259 172.648C203.715 171.832 203.443 170.896 203.443 169.84C203.443 169.2 203.579 168.624 203.851 168.112C204.123 167.584 204.459 167.136 204.859 166.768C205.275 166.4 205.691 166.104 206.107 165.88C205.515 165.592 205.011 165.16 204.595 164.584C204.179 164.008 203.971 163.376 203.971 162.688C203.971 161.92 204.139 161.248 204.475 160.672C204.811 160.08 205.259 159.584 205.819 159.184C206.379 158.784 206.987 158.48 207.643 158.272C208.315 158.064 208.979 157.96 209.635 157.96C210.275 157.96 210.931 158.064 211.603 158.272C212.275 158.464 212.891 158.76 213.451 159.16C214.011 159.56 214.459 160.056 214.795 160.648C215.147 161.224 215.323 161.896 215.323 162.664C215.323 163.352 215.107 163.992 214.675 164.584C214.243 165.176 213.723 165.608 213.115 165.88C213.819 166.232 214.443 166.76 214.987 167.464C215.547 168.152 215.827 168.984 215.827 169.96ZM207.235 162.784C207.235 163.216 207.355 163.584 207.595 163.888C207.835 164.192 208.139 164.424 208.507 164.584C208.875 164.728 209.251 164.8 209.635 164.8C210.003 164.8 210.371 164.728 210.739 164.584C211.107 164.424 211.411 164.192 211.651 163.888C211.907 163.584 212.035 163.208 212.035 162.76C212.035 162.168 211.795 161.696 211.315 161.344C210.835 160.992 210.267 160.816 209.611 160.816C208.971 160.816 208.411 161 207.931 161.368C207.467 161.72 207.235 162.192 207.235 162.784ZM212.563 169.768C212.563 169.224 212.419 168.768 212.131 168.4C211.843 168.016 211.475 167.728 211.027 167.536C210.579 167.328 210.107 167.224 209.611 167.224C209.099 167.224 208.619 167.328 208.171 167.536C207.739 167.744 207.387 168.04 207.115 168.424C206.843 168.808 206.707 169.256 206.707 169.768C206.707 170.28 206.851 170.728 207.139 171.112C207.427 171.48 207.795 171.776 208.243 172C208.691 172.208 209.155 172.312 209.635 172.312C210.147 172.312 210.619 172.2 211.051 171.976C211.499 171.752 211.859 171.456 212.131 171.088C212.419 170.704 212.563 170.264 212.563 169.768ZM220.256 175C220.256 173.704 220.368 172.608 220.592 171.712C220.832 170.8 221.208 170.024 221.72 169.384C222.248 168.728 222.944 168.136 223.808 167.608C224.368 167.272 224.944 166.96 225.536 166.672C226.144 166.368 226.704 166.056 227.216 165.736C227.744 165.4 228.168 165.016 228.488 164.584C228.824 164.136 228.992 163.6 228.992 162.976C228.992 162.272 228.768 161.712 228.32 161.296C227.888 160.864 227.272 160.648 226.472 160.648C225.864 160.648 225.296 160.76 224.768 160.984C224.256 161.192 223.792 161.456 223.376 161.776C222.976 162.08 222.632 162.384 222.344 162.688L220.328 160.576C220.616 160.24 221.056 159.856 221.648 159.424C222.256 158.976 223 158.584 223.88 158.248C224.76 157.912 225.76 157.744 226.88 157.744C228.128 157.744 229.176 157.968 230.024 158.416C230.872 158.848 231.512 159.448 231.944 160.216C232.392 160.968 232.616 161.84 232.616 162.832C232.616 163.792 232.408 164.608 231.992 165.28C231.592 165.936 231.072 166.496 230.432 166.96C229.792 167.424 229.128 167.856 228.44 168.256C227.336 168.848 226.496 169.352 225.92 169.768C225.36 170.184 224.96 170.576 224.72 170.944C224.48 171.296 224.288 171.68 224.144 172.096H232.64V175H220.256ZM249.881 169.312C249.881 170.416 249.601 171.416 249.041 172.312C248.497 173.208 247.753 173.92 246.809 174.448C245.881 174.976 244.825 175.24 243.641 175.24C242.361 175.24 241.249 174.928 240.305 174.304C239.361 173.68 238.633 172.784 238.121 171.616C237.625 170.448 237.377 169.048 237.377 167.416C237.377 164.312 237.969 161.944 239.153 160.312C240.353 158.664 241.961 157.84 243.977 157.84C245.049 157.84 246.033 158.072 246.929 158.536C247.841 159 248.609 159.664 249.233 160.528L247.385 162.544C247.001 161.952 246.505 161.488 245.897 161.152C245.289 160.8 244.633 160.624 243.929 160.624C242.857 160.624 242.001 161.056 241.361 161.92C240.721 162.768 240.385 163.96 240.353 165.496C240.689 164.92 241.169 164.464 241.793 164.128C242.417 163.792 243.129 163.624 243.929 163.624C245.049 163.624 246.057 163.88 246.953 164.392C247.849 164.888 248.561 165.568 249.089 166.432C249.617 167.28 249.881 168.24 249.881 169.312ZM243.665 172.528C244.225 172.528 244.745 172.384 245.225 172.096C245.705 171.792 246.089 171.4 246.377 170.92C246.665 170.424 246.809 169.888 246.809 169.312C246.809 168.736 246.665 168.216 246.377 167.752C246.089 167.272 245.705 166.896 245.225 166.624C244.745 166.336 244.225 166.192 243.665 166.192C243.089 166.192 242.561 166.336 242.081 166.624C241.601 166.896 241.217 167.272 240.929 167.752C240.657 168.216 240.521 168.736 240.521 169.312C240.521 169.888 240.665 170.424 240.953 170.92C241.241 171.4 241.617 171.792 242.081 172.096C242.561 172.384 243.089 172.528 243.665 172.528Z" fill="#5D5D5D"/>
<path d="M74.1094 156.172L69.2344 155.047C68.7188 154.906 68.1562 155.188 67.9219 155.703L65.6719 160.953C65.4844 161.422 65.625 161.938 66 162.266L68.8594 164.609C67.1719 168.172 64.2188 171.172 60.5625 172.906L58.2188 170.047C57.8906 169.672 57.375 169.531 56.9062 169.719L51.6562 171.969C51.1406 172.203 50.9062 172.766 51 173.281L52.125 178.156C52.2656 178.672 52.6875 179 53.25 179C65.25 179 75 169.297 75 157.25C75 156.734 74.625 156.312 74.1094 156.172Z" fill="black"/>
</g>
<defs>
<filter id="filter0_d" x="0" y="0" width="338" height="251" filterUnits="userSpaceOnUse" color-interpolation-filters="sRGB">
<feFlood flood-opacity="0" result="BackgroundImageFix"/>
<feColorMatrix in="SourceAlpha" type="matrix" values="0 0 0 0 0 0 0 0 0 0 0 0 0 0 0 0 0 0 127 0"/>
<feOffset dy="4"/>
<feGaussianBlur stdDeviation="2"/>
<feColorMatrix type="matrix" values="0 0 0 0 0 0 0 0 0 0 0 0 0 0 0 0 0 0 0.25 0"/>
<feBlend mode="normal" in2="BackgroundImageFix" result="effect1_dropShadow"/>
<feBlend mode="normal" in="SourceGraphic" in2="effect1_dropShadow" result="shape"/>
</filter>
</defs>
</svg>
