<svg width="199" height="40" viewBox="0 0 199 40" fill="none" xmlns="http://www.w3.org/2000/svg">
<!-- <line y1="39.5" x2="199" y2="39.5" stroke="white"/> -->
<path d="M1.68 9.56H8.712V10.976H3.528V18.272H7.752V19.616H3.528V27.632H8.76V29H1.68V9.56ZM15.1305 27.776L19.8585 16.472H15.6345V15.128H21.7065V16.184L17.0025 27.656H21.6345V29H15.1305V27.776ZM31.9787 29.216C31.0827 29.216 30.3627 29.04 29.8187 28.688C29.2747 28.336 28.8747 27.768 28.6187 26.984C28.3627 26.2 28.2347 25.136 28.2347 23.792V20.288C28.2347 18.928 28.3627 17.864 28.6187 17.096C28.8907 16.312 29.2987 15.752 29.8427 15.416C30.4027 15.08 31.1227 14.912 32.0027 14.912C32.9627 14.912 33.6987 15.12 34.2107 15.536C34.7387 15.936 35.0987 16.544 35.2907 17.36C35.4987 18.176 35.6027 19.272 35.6027 20.648V21.896H29.9867V24.32C29.9867 25.648 30.1387 26.576 30.4427 27.104C30.7467 27.632 31.2587 27.896 31.9787 27.896C32.5867 27.896 33.0507 27.704 33.3707 27.32C33.7067 26.936 33.8747 26.24 33.8747 25.232V24.272H35.5787V25.04C35.5787 26.384 35.2987 27.416 34.7387 28.136C34.1787 28.856 33.2587 29.216 31.9787 29.216ZM33.8747 20.888V19.736C33.8747 18.904 33.8267 18.248 33.7307 17.768C33.6507 17.288 33.4747 16.912 33.2027 16.64C32.9307 16.368 32.5227 16.232 31.9787 16.232C31.4827 16.232 31.0907 16.344 30.8027 16.568C30.5147 16.776 30.3067 17.152 30.1787 17.696C30.0507 18.224 29.9867 18.976 29.9867 19.952V20.888H33.8747ZM48.2634 28.016C47.5594 28.816 46.7674 29.216 45.8874 29.216C44.7034 29.216 43.8474 28.768 43.3194 27.872C42.8074 26.976 42.5514 25.488 42.5514 23.408V20.84C42.5514 18.856 42.7834 17.376 43.2474 16.4C43.7274 15.408 44.5914 14.912 45.8394 14.912C46.3354 14.912 46.7834 15.032 47.1834 15.272C47.5994 15.496 47.9594 15.784 48.2634 16.136V15.128H50.0154V33.56H48.2634V28.016ZM46.2474 27.824C46.9354 27.824 47.6074 27.512 48.2634 26.888V17.288C47.5594 16.616 46.8714 16.28 46.1994 16.28C45.4634 16.28 44.9594 16.592 44.6874 17.216C44.4314 17.84 44.3034 18.856 44.3034 20.264V23.552C44.3034 25.056 44.4314 26.144 44.6874 26.816C44.9594 27.488 45.4794 27.824 46.2474 27.824ZM59.5449 29.216C58.8409 29.216 58.3049 28.96 57.9369 28.448C57.5689 27.936 57.3849 27.208 57.3849 26.264V15.128H59.1609V25.88C59.1609 26.584 59.2649 27.088 59.4729 27.392C59.6969 27.68 60.0329 27.824 60.4809 27.824C60.8809 27.824 61.2889 27.704 61.7049 27.464C62.1369 27.208 62.5449 26.872 62.9289 26.456V15.128H64.6809V29H62.9289V27.464C62.4649 28.008 61.9449 28.44 61.3689 28.76C60.7929 29.064 60.1849 29.216 59.5449 29.216ZM72.3876 10.832H74.1396V13.208H72.3876V10.832ZM72.3876 15.128H74.1396V29H72.3876V15.128ZM85.374 29.216C84.478 29.216 83.758 29.04 83.214 28.688C82.67 28.336 82.27 27.768 82.014 26.984C81.758 26.2 81.63 25.136 81.63 23.792V20.288C81.63 18.928 81.758 17.864 82.014 17.096C82.286 16.312 82.694 15.752 83.238 15.416C83.798 15.08 84.518 14.912 85.398 14.912C86.358 14.912 87.094 15.12 87.606 15.536C88.134 15.936 88.494 16.544 88.686 17.36C88.894 18.176 88.998 19.272 88.998 20.648V21.896H83.382V24.32C83.382 25.648 83.534 26.576 83.838 27.104C84.142 27.632 84.654 27.896 85.374 27.896C85.982 27.896 86.446 27.704 86.766 27.32C87.102 26.936 87.27 26.24 87.27 25.232V24.272H88.974V25.04C88.974 26.384 88.694 27.416 88.134 28.136C87.574 28.856 86.654 29.216 85.374 29.216ZM87.27 20.888V19.736C87.27 18.904 87.222 18.248 87.126 17.768C87.046 17.288 86.87 16.912 86.598 16.64C86.326 16.368 85.918 16.232 85.374 16.232C84.878 16.232 84.486 16.344 84.198 16.568C83.91 16.776 83.702 17.152 83.574 17.696C83.446 18.224 83.382 18.976 83.382 19.952V20.888H87.27ZM96.4027 9.56H98.1547V29H96.4027V9.56ZM118.585 29.216C117.401 29.216 116.545 28.768 116.017 27.872C115.505 26.976 115.249 25.488 115.249 23.408V20.84C115.249 18.872 115.481 17.392 115.945 16.4C116.409 15.408 117.265 14.912 118.513 14.912C119.409 14.912 120.225 15.312 120.961 16.112V9.56H122.713V29H120.961V28.016C120.225 28.816 119.433 29.216 118.585 29.216ZM118.945 27.824C119.617 27.824 120.289 27.52 120.961 26.912V17.264C120.225 16.608 119.537 16.28 118.897 16.28C118.161 16.28 117.657 16.592 117.385 17.216C117.129 17.84 117.001 18.856 117.001 20.264V23.552C117.001 25.056 117.129 26.144 117.385 26.816C117.657 27.488 118.177 27.824 118.945 27.824ZM133.707 29.216C132.811 29.216 132.091 29.04 131.547 28.688C131.003 28.336 130.603 27.768 130.347 26.984C130.091 26.2 129.963 25.136 129.963 23.792V20.288C129.963 18.928 130.091 17.864 130.347 17.096C130.619 16.312 131.027 15.752 131.571 15.416C132.131 15.08 132.851 14.912 133.731 14.912C134.691 14.912 135.427 15.12 135.939 15.536C136.467 15.936 136.827 16.544 137.019 17.36C137.227 18.176 137.331 19.272 137.331 20.648V21.896H131.715V24.32C131.715 25.648 131.867 26.576 132.171 27.104C132.475 27.632 132.987 27.896 133.707 27.896C134.315 27.896 134.779 27.704 135.099 27.32C135.435 26.936 135.603 26.24 135.603 25.232V24.272H137.307V25.04C137.307 26.384 137.027 27.416 136.467 28.136C135.907 28.856 134.987 29.216 133.707 29.216ZM135.603 20.888V19.736C135.603 18.904 135.555 18.248 135.459 17.768C135.379 17.288 135.203 16.912 134.931 16.64C134.659 16.368 134.251 16.232 133.707 16.232C133.211 16.232 132.819 16.344 132.531 16.568C132.243 16.776 132.035 17.152 131.907 17.696C131.779 18.224 131.715 18.976 131.715 19.952V20.888H135.603ZM144.736 9.56H146.488V29H144.736V9.56ZM164.206 9.56H168.598C170.342 9.56 171.582 9.984 172.318 10.832C173.054 11.664 173.422 12.888 173.422 14.504C173.422 15.736 173.222 16.752 172.822 17.552C172.422 18.352 171.726 18.856 170.734 19.064L173.71 29H171.934L169.078 19.448H166.03V29H164.206V9.56ZM168.502 18.104C169.67 18.104 170.486 17.816 170.95 17.24C171.414 16.664 171.646 15.752 171.646 14.504C171.646 13.24 171.422 12.328 170.974 11.768C170.542 11.208 169.734 10.928 168.55 10.928H166.03V18.104H168.502ZM181.119 15.128H182.871V29H181.119V15.128ZM183.063 9.272H184.815L182.463 13.976H181.551L183.063 9.272ZM193.917 29.216C192.541 29.216 191.581 28.792 191.037 27.944C190.493 27.08 190.221 25.76 190.221 23.984V20.144C190.221 18.368 190.493 17.056 191.037 16.208C191.581 15.344 192.541 14.912 193.917 14.912C195.309 14.912 196.277 15.344 196.821 16.208C197.365 17.056 197.637 18.368 197.637 20.144V23.984C197.637 25.76 197.365 27.08 196.821 27.944C196.277 28.792 195.309 29.216 193.917 29.216ZM193.917 27.896C194.493 27.896 194.917 27.744 195.189 27.44C195.477 27.136 195.661 26.728 195.741 26.216C195.821 25.688 195.861 24.976 195.861 24.08V20.048C195.861 19.152 195.821 18.448 195.741 17.936C195.661 17.408 195.477 16.992 195.189 16.688C194.917 16.384 194.493 16.232 193.917 16.232C193.341 16.232 192.917 16.384 192.645 16.688C192.373 16.992 192.197 17.408 192.117 17.936C192.037 18.448 191.997 19.152 191.997 20.048V24.08C191.997 24.976 192.037 25.688 192.117 26.216C192.197 26.728 192.373 27.136 192.645 27.44C192.917 27.744 193.341 27.896 193.917 27.896Z" fill="white"/>
</svg>
