<svg width="34" height="22" viewBox="0 0 34 22" fill="none" xmlns="http://www.w3.org/2000/svg">
<path d="M5.525 17.4213C2.47363 17.4213 0 15.7556 0 13.7008V3.97044C0 1.9157 2.47363 0.25 5.525 0.25H28.475C31.5264 0.25 34 1.9157 34 3.97044V13.7008C34 15.7556 31.5264 17.4213 28.475 17.4213H18.7212L10.1978 21.7149C9.25795 22.1882 7.92625 22.0589 7.22332 21.426C6.94851 21.1786 6.8 20.8779 6.8 20.5692L6.79866 17.4213H5.525ZM17.873 15.7041H28.475C30.118 15.7041 31.45 14.8072 31.45 13.7008V3.97044C31.45 2.86404 30.118 1.96713 28.475 1.96713H5.525C3.88195 1.96713 2.55 2.86404 2.55 3.97044V13.7008C2.55 14.8072 3.88195 15.7041 5.525 15.7041H9.34794L9.3483 16.5625L9.34976 19.9976L17.873 15.7041Z" fill="white"/>
<path d="M6.03278 11.07C5.50078 11.07 5.12745 10.9137 4.91278 10.601C4.70278 10.2883 4.59778 9.85433 4.59778 9.299V7.045C4.59778 6.47567 4.70278 6.03933 4.91278 5.736C5.12745 5.428 5.50078 5.274 6.03278 5.274C6.51812 5.274 6.86345 5.41167 7.06878 5.687C7.27412 5.96233 7.37678 6.36133 7.37678 6.884V7.227H6.87278V6.898C6.87278 6.62733 6.85178 6.408 6.80978 6.24C6.76778 6.06733 6.68612 5.93433 6.56478 5.841C6.44345 5.74767 6.26845 5.701 6.03978 5.701C5.79245 5.701 5.60345 5.75233 5.47278 5.855C5.34212 5.95767 5.25345 6.1 5.20678 6.282C5.16012 6.45933 5.13678 6.688 5.13678 6.968V9.383C5.13678 9.82167 5.20212 10.1413 5.33278 10.342C5.46812 10.5427 5.70378 10.643 6.03978 10.643C6.37112 10.643 6.59278 10.5427 6.70478 10.342C6.81678 10.1367 6.87278 9.82633 6.87278 9.411V9.04H7.37678V9.376C7.37678 9.91733 7.27645 10.335 7.07578 10.629C6.87512 10.923 6.52745 11.07 6.03278 11.07ZM9.24595 11.063C8.84462 11.063 8.56462 10.9393 8.40595 10.692C8.24728 10.44 8.16795 10.055 8.16795 9.537V8.417C8.16795 7.899 8.24728 7.51633 8.40595 7.269C8.56462 7.017 8.84462 6.891 9.24595 6.891C9.65195 6.891 9.93428 7.017 10.0929 7.269C10.2516 7.51633 10.3309 7.899 10.3309 8.417V9.537C10.3309 10.055 10.2516 10.44 10.0929 10.692C9.93428 10.9393 9.65195 11.063 9.24595 11.063ZM9.24595 10.678C9.41395 10.678 9.53762 10.6337 9.61695 10.545C9.70095 10.4563 9.75462 10.3373 9.77795 10.188C9.80128 10.034 9.81295 9.82633 9.81295 9.565V8.389C9.81295 8.12767 9.80128 7.92233 9.77795 7.773C9.75462 7.619 9.70095 7.49767 9.61695 7.409C9.53762 7.32033 9.41395 7.276 9.24595 7.276C9.07795 7.276 8.95428 7.32033 8.87495 7.409C8.79562 7.49767 8.74428 7.619 8.72095 7.773C8.69762 7.92233 8.68595 8.12767 8.68595 8.389V9.565C8.68595 9.82633 8.69762 10.034 8.72095 10.188C8.74428 10.3373 8.79562 10.4563 8.87495 10.545C8.95428 10.6337 9.07795 10.678 9.24595 10.678ZM11.1808 6.954H11.6918V7.374C11.8272 7.22467 11.9765 7.108 12.1398 7.024C12.3078 6.93533 12.4828 6.891 12.6648 6.891C12.8655 6.891 13.0195 6.96567 13.1268 7.115C13.2342 7.26433 13.2878 7.47667 13.2878 7.752V11H12.7768V7.864C12.7768 7.65867 12.7442 7.51167 12.6788 7.423C12.6182 7.33433 12.5225 7.29 12.3918 7.29C12.2798 7.29 12.1632 7.325 12.0418 7.395C11.9205 7.46033 11.8038 7.55133 11.6918 7.668V11H11.1808V6.954ZM15.1441 11.049C14.8688 11.049 14.6774 10.9743 14.5701 10.825C14.4674 10.671 14.4161 10.4493 14.4161 10.16V7.29H13.9191V6.954H14.4161V5.701H14.9271V6.954H15.5991V7.29H14.9271V10.111C14.9271 10.3163 14.9504 10.4587 14.9971 10.538C15.0438 10.6127 15.1394 10.65 15.2841 10.65C15.3728 10.65 15.4708 10.6383 15.5781 10.615V11.007C15.4334 11.035 15.2888 11.049 15.1441 11.049ZM16.987 11.063C16.7444 11.063 16.5484 10.9767 16.399 10.804C16.2497 10.6313 16.175 10.4167 16.175 10.16C16.175 9.894 16.2264 9.67467 16.329 9.502C16.4364 9.32933 16.5997 9.17533 16.819 9.04C17.0384 8.90467 17.3674 8.739 17.806 8.543V8.256C17.806 8.004 17.7897 7.808 17.757 7.668C17.729 7.528 17.6777 7.42767 17.603 7.367C17.533 7.30633 17.4327 7.276 17.302 7.276C16.924 7.276 16.735 7.507 16.735 7.969V8.109L16.231 8.102C16.2357 7.68667 16.3244 7.381 16.497 7.185C16.6697 6.989 16.9474 6.891 17.33 6.891C17.6847 6.891 17.9367 6.99833 18.086 7.213C18.24 7.42767 18.317 7.766 18.317 8.228V10.195C18.317 10.3257 18.3194 10.475 18.324 10.643C18.3334 10.811 18.3427 10.93 18.352 11H17.897L17.82 10.44C17.7594 10.6173 17.6544 10.7667 17.505 10.888C17.3604 11.0047 17.1877 11.063 16.987 11.063ZM17.148 10.629C17.288 10.629 17.414 10.5823 17.526 10.489C17.6427 10.391 17.736 10.2767 17.806 10.146V8.886C17.4887 9.054 17.2577 9.18467 17.113 9.278C16.973 9.37133 16.8657 9.47633 16.791 9.593C16.721 9.705 16.686 9.852 16.686 10.034C16.686 10.2347 16.728 10.384 16.812 10.482C16.9007 10.58 17.0127 10.629 17.148 10.629ZM20.2172 11.063C19.9186 11.063 19.6899 10.9977 19.5312 10.867C19.3726 10.7317 19.2652 10.552 19.2092 10.328C19.1579 10.0993 19.1322 9.81233 19.1322 9.467V8.522C19.1322 8.13 19.1626 7.81733 19.2232 7.584C19.2886 7.35067 19.3982 7.178 19.5522 7.066C19.7109 6.94933 19.9326 6.891 20.2172 6.891C20.6139 6.891 20.8846 7.00067 21.0292 7.22C21.1739 7.43467 21.2462 7.75667 21.2462 8.186V8.382H20.7702V8.186C20.7702 7.948 20.7516 7.76367 20.7142 7.633C20.6816 7.50233 20.6256 7.41133 20.5462 7.36C20.4669 7.304 20.3572 7.276 20.2172 7.276C20.0586 7.276 19.9372 7.31333 19.8532 7.388C19.7739 7.46267 19.7179 7.58167 19.6852 7.745C19.6572 7.90367 19.6432 8.13467 19.6432 8.438V9.572C19.6432 9.852 19.6596 10.0713 19.6922 10.23C19.7249 10.3887 19.7832 10.503 19.8672 10.573C19.9512 10.643 20.0702 10.678 20.2242 10.678C20.3829 10.678 20.4996 10.6453 20.5742 10.58C20.6536 10.51 20.7049 10.4073 20.7282 10.272C20.7562 10.1367 20.7702 9.94767 20.7702 9.705V9.481H21.2462V9.677C21.2462 9.98033 21.2182 10.2323 21.1622 10.433C21.1109 10.629 21.0106 10.783 20.8612 10.895C20.7119 11.007 20.4972 11.063 20.2172 11.063ZM23.0289 11.049C22.7536 11.049 22.5623 10.9743 22.4549 10.825C22.3523 10.671 22.3009 10.4493 22.3009 10.16V7.29H21.8039V6.954H22.3009V5.701H22.8119V6.954H23.4839V7.29H22.8119V10.111C22.8119 10.3163 22.8353 10.4587 22.8819 10.538C22.9286 10.6127 23.0243 10.65 23.1689 10.65C23.2576 10.65 23.3556 10.6383 23.4629 10.615V11.007C23.3183 11.035 23.1736 11.049 23.0289 11.049ZM24.8719 11.063C24.6292 11.063 24.4332 10.9767 24.2839 10.804C24.1345 10.6313 24.0599 10.4167 24.0599 10.16C24.0599 9.894 24.1112 9.67467 24.2139 9.502C24.3212 9.32933 24.4845 9.17533 24.7039 9.04C24.9232 8.90467 25.2522 8.739 25.6909 8.543V8.256C25.6909 8.004 25.6745 7.808 25.6419 7.668C25.6139 7.528 25.5625 7.42767 25.4879 7.367C25.4179 7.30633 25.3175 7.276 25.1869 7.276C24.8089 7.276 24.6199 7.507 24.6199 7.969V8.109L24.1159 8.102C24.1205 7.68667 24.2092 7.381 24.3819 7.185C24.5545 6.989 24.8322 6.891 25.2149 6.891C25.5695 6.891 25.8215 6.99833 25.9709 7.213C26.1249 7.42767 26.2019 7.766 26.2019 8.228V10.195C26.2019 10.3257 26.2042 10.475 26.2089 10.643C26.2182 10.811 26.2275 10.93 26.2369 11H25.7819L25.7049 10.44C25.6442 10.6173 25.5392 10.7667 25.3899 10.888C25.2452 11.0047 25.0725 11.063 24.8719 11.063ZM25.0329 10.629C25.1729 10.629 25.2989 10.5823 25.4109 10.489C25.5275 10.391 25.6209 10.2767 25.6909 10.146V8.886C25.3735 9.054 25.1425 9.18467 24.9979 9.278C24.8579 9.37133 24.7505 9.47633 24.6759 9.593C24.6059 9.705 24.5709 9.852 24.5709 10.034C24.5709 10.2347 24.6129 10.384 24.6969 10.482C24.7855 10.58 24.8975 10.629 25.0329 10.629ZM27.1291 6.954H27.6471V7.507C27.7684 7.30633 27.9108 7.157 28.0741 7.059C28.2421 6.961 28.4101 6.912 28.5781 6.912C28.6108 6.912 28.6411 6.91433 28.6691 6.919V7.465C28.5851 7.437 28.5011 7.423 28.4171 7.423C28.0951 7.423 27.8384 7.57933 27.6471 7.892V11H27.1291V6.954Z" fill="white"/>
</svg>
