<svg width="36" height="36" viewBox="0 0 36 36" fill="none" xmlns="http://www.w3.org/2000/svg">
<path d="M18 36C27.9411 36 36 27.9411 36 18C36 8.05887 27.9411 0 18 0C8.05887 0 0 8.05887 0 18C0 27.9411 8.05887 36 18 36Z" fill="#F7DF1E"/>
<path d="M5.5386 23.1501L8.44635 21.5183C9.00739 22.4406 9.51769 23.221 10.7418 23.221C11.9151 23.221 12.6551 22.7954 12.6551 21.1399V9.8817H16.2258V21.1867C16.2258 24.6162 14.0579 26.1772 10.8948 26.1772C8.03831 26.1772 6.38021 24.8054 5.53845 23.1498L5.5386 23.1501ZM18.1653 22.7952L21.0728 21.2343C21.8382 22.3934 22.833 23.2448 24.5928 23.2448C26.0725 23.2448 27.0159 22.5588 27.0159 21.6127C27.0159 20.4775 26.0466 20.0753 24.4142 19.4133L23.5217 19.0582C20.9454 18.0415 19.2366 16.7643 19.2366 14.068C19.2366 11.5845 21.277 9.69233 24.4655 9.69233C26.7355 9.69233 28.3679 10.4256 29.5411 12.3414L26.7608 13.9971C26.1485 12.9801 25.4856 12.5781 24.4653 12.5781C23.4195 12.5781 22.7563 13.193 22.7563 13.9971C22.7563 14.9904 23.4195 15.3927 24.9498 16.0077L25.8424 16.3623C28.8778 17.5687 30.5867 18.7985 30.5867 21.5655C30.5867 24.5458 28.0616 26.1776 24.6692 26.1776C21.3535 26.1776 19.2109 24.7113 18.1652 22.7954" fill="black"/>
</svg>
