<svg width="36" height="36" viewBox="0 0 36 36" fill="none" xmlns="http://www.w3.org/2000/svg">
<circle cx="18" cy="18" r="18" fill="white"/>
<path d="M25.9962 7.85156C25.9962 6.41016 22.4454 5.25 18.1212 5.25C13.7618 5.25 10.2462 6.41016 10.2462 7.85156V9.43359C10.2462 10.875 13.7618 12 18.1212 12C22.4454 12 25.9962 10.875 25.9962 9.43359V7.85156ZM25.9962 11.4375C24.2736 12.6328 21.1798 13.1602 18.1212 13.1602C15.0275 13.1602 11.9337 12.6328 10.2462 11.4375V15.0586C10.2462 16.5 13.7618 17.625 18.1212 17.625C22.4454 17.625 25.9962 16.5 25.9962 15.0586V11.4375ZM25.9962 17.0625C24.2736 18.2578 21.1798 18.7852 18.1212 18.7852C15.0275 18.7852 11.9337 18.2578 10.2462 17.0625V20.6836C10.2462 22.125 13.7618 23.25 18.1212 23.25C22.4454 23.25 25.9962 22.125 25.9962 20.6836V17.0625Z" fill="#491EF7"/>
<path d="M13.3874 29.3188C13.3874 29.1112 13.2996 28.9447 13.1242 28.8193C12.9487 28.694 12.6497 28.5812 12.2272 28.481C11.8047 28.3807 11.4484 28.2751 11.1584 28.1641C10.8719 28.0495 10.6356 27.9152 10.4494 27.7612C10.2632 27.6073 10.1253 27.43 10.0358 27.2295C9.94628 27.0254 9.90152 26.7837 9.90152 26.5044C9.90152 25.9673 10.1253 25.5251 10.5729 25.1777C11.0205 24.8304 11.597 24.6567 12.3024 24.6567C13.0723 24.6567 13.6935 24.8322 14.1662 25.1831C14.6424 25.5304 14.8805 26.0067 14.8805 26.6118H13.3283C13.3283 26.3826 13.2352 26.1911 13.049 26.0371C12.8664 25.8831 12.6193 25.8062 12.3078 25.8062C12.0321 25.8062 11.8083 25.867 11.6364 25.9888C11.4645 26.1105 11.3786 26.2627 11.3786 26.4453C11.3786 26.6279 11.4681 26.7765 11.6471 26.8911C11.8262 27.0021 12.1234 27.1095 12.5387 27.2134C13.373 27.396 13.9692 27.6484 14.3273 27.9707C14.689 28.293 14.8698 28.728 14.8698 29.2759C14.8698 29.8345 14.6496 30.2767 14.2091 30.6025C13.7687 30.9248 13.1671 31.0859 12.4044 31.0859C11.8852 31.0859 11.4162 31.0018 10.9972 30.8335C10.5783 30.6652 10.2542 30.4253 10.0251 30.1138C9.79947 29.8022 9.68667 29.4334 9.68667 29.0073H11.2443C11.2443 29.3403 11.3463 29.5802 11.5504 29.7271C11.7581 29.8739 12.0679 29.9473 12.4796 29.9473C12.7589 29.9473 12.9792 29.89 13.1403 29.7754C13.305 29.6608 13.3874 29.5086 13.3874 29.3188ZM21.4547 27.9976C21.4547 28.5669 21.3545 29.0646 21.154 29.4907C20.957 29.9168 20.6849 30.2624 20.3376 30.5273L21.3903 31.3169L20.4235 32.1548L18.9894 31.0537C18.8426 31.0752 18.694 31.0859 18.5436 31.0859C17.6735 31.0859 16.9681 30.8066 16.4274 30.248C15.8903 29.6895 15.6217 28.9285 15.6217 27.9653V27.7559C15.6217 27.14 15.7417 26.5975 15.9816 26.1284C16.2215 25.6593 16.5635 25.2977 17.0075 25.0435C17.4515 24.7856 17.9617 24.6567 18.5382 24.6567C19.104 24.6567 19.6071 24.7821 20.0475 25.0327C20.4915 25.2834 20.8353 25.6432 21.0788 26.1123C21.3258 26.5778 21.4512 27.1149 21.4547 27.7236V27.9976ZM19.9025 27.7505C19.9025 27.1561 19.7825 26.6995 19.5426 26.3809C19.3027 26.0622 18.9679 25.9028 18.5382 25.9028C18.0942 25.9028 17.7558 26.0622 17.5231 26.3809C17.2904 26.6995 17.174 27.1561 17.174 27.7505V27.9976C17.174 28.5884 17.2939 29.0449 17.5338 29.3672C17.7773 29.6895 18.1139 29.8506 18.5436 29.8506C18.9661 29.8506 19.2974 29.6895 19.5373 29.3672C19.7807 29.0449 19.9025 28.583 19.9025 27.9814V27.7505ZM23.8932 29.7539H26.7453V31H22.3356V24.7427H23.8932V29.7539Z" fill="black"/>
</svg>
