<svg width="375" height="250" viewBox="0 0 375 250" fill="none" xmlns="http://www.w3.org/2000/svg">
<path d="M0 250L375 171.257V0H180.442H0V171.257V250Z" fill="black"/>
<path d="M25.6199 68.216C24.4359 68.216 23.5799 67.768 23.0519 66.872C22.5399 65.976 22.2839 64.488 22.2839 62.408V59.84C22.2839 57.872 22.5159 56.392 22.9799 55.4C23.4439 54.408 24.2999 53.912 25.5479 53.912C26.4439 53.912 27.2599 54.312 27.9959 55.112V48.56H29.7479V68H27.9959V67.016C27.2599 67.816 26.4679 68.216 25.6199 68.216ZM25.9799 66.824C26.6519 66.824 27.3239 66.52 27.9959 65.912V56.264C27.2599 55.608 26.5719 55.28 25.9319 55.28C25.1959 55.28 24.6919 55.592 24.4199 56.216C24.1639 56.84 24.0359 57.856 24.0359 59.264V62.552C24.0359 64.056 24.1639 65.144 24.4199 65.816C24.6919 66.488 25.2119 66.824 25.9799 66.824ZM39.542 68.216C38.646 68.216 37.926 68.04 37.382 67.688C36.838 67.336 36.438 66.768 36.182 65.984C35.926 65.2 35.798 64.136 35.798 62.792V59.288C35.798 57.928 35.926 56.864 36.182 56.096C36.454 55.312 36.862 54.752 37.406 54.416C37.966 54.08 38.686 53.912 39.566 53.912C40.526 53.912 41.262 54.12 41.774 54.536C42.302 54.936 42.662 55.544 42.854 56.36C43.062 57.176 43.166 58.272 43.166 59.648V60.896H37.55V63.32C37.55 64.648 37.702 65.576 38.006 66.104C38.31 66.632 38.822 66.896 39.542 66.896C40.15 66.896 40.614 66.704 40.934 66.32C41.27 65.936 41.438 65.24 41.438 64.232V63.272H43.142V64.04C43.142 65.384 42.862 66.416 42.302 67.136C41.742 67.856 40.822 68.216 39.542 68.216ZM41.438 59.888V58.736C41.438 57.904 41.39 57.248 41.294 56.768C41.214 56.288 41.038 55.912 40.766 55.64C40.494 55.368 40.086 55.232 39.542 55.232C39.046 55.232 38.654 55.344 38.366 55.568C38.078 55.776 37.87 56.152 37.742 56.696C37.614 57.224 37.55 57.976 37.55 58.952V59.888H41.438ZM52.2987 68.216C51.2107 68.216 50.3307 67.864 49.6587 67.16C49.0027 66.456 48.6267 65.496 48.5307 64.28L49.9947 63.824C50.0907 64.88 50.3387 65.656 50.7387 66.152C51.1387 66.648 51.6987 66.896 52.4187 66.896C53.0267 66.896 53.4907 66.728 53.8107 66.392C54.1467 66.04 54.3147 65.552 54.3147 64.928C54.3147 64.016 53.7547 63.088 52.6347 62.144L50.7387 60.512C50.0827 59.968 49.6027 59.432 49.2987 58.904C48.9947 58.376 48.8427 57.752 48.8427 57.032C48.8427 56.056 49.1387 55.296 49.7307 54.752C50.3387 54.192 51.1467 53.912 52.1547 53.912C53.1787 53.912 53.9627 54.24 54.5067 54.896C55.0667 55.552 55.3787 56.44 55.4427 57.56L54.1947 57.968C54.0987 56.144 53.4427 55.232 52.2267 55.232C51.6827 55.232 51.2507 55.384 50.9307 55.688C50.6107 55.976 50.4507 56.384 50.4507 56.912C50.4507 57.344 50.5307 57.72 50.6907 58.04C50.8507 58.36 51.1467 58.712 51.5787 59.096L53.5467 60.848C54.2987 61.52 54.8667 62.152 55.2507 62.744C55.6507 63.32 55.8507 64.032 55.8507 64.88C55.8507 65.936 55.5307 66.76 54.8907 67.352C54.2507 67.928 53.3867 68.216 52.2987 68.216ZM63.8495 68.216C63.0175 68.216 62.3455 67.92 61.8335 67.328C61.3215 66.736 61.0655 66 61.0655 65.12C61.0655 64.208 61.2415 63.456 61.5935 62.864C61.9615 62.272 62.5215 61.744 63.2735 61.28C64.0255 60.816 65.1535 60.248 66.6575 59.576V58.592C66.6575 57.728 66.6015 57.056 66.4895 56.576C66.3935 56.096 66.2175 55.752 65.9615 55.544C65.7215 55.336 65.3775 55.232 64.9295 55.232C63.6335 55.232 62.9855 56.024 62.9855 57.608V58.088L61.2575 58.064C61.2735 56.64 61.5775 55.592 62.1695 54.92C62.7615 54.248 63.7135 53.912 65.0255 53.912C66.2415 53.912 67.1055 54.28 67.6175 55.016C68.1455 55.752 68.4095 56.912 68.4095 58.496V65.24C68.4095 65.688 68.4175 66.2 68.4335 66.776C68.4655 67.352 68.4975 67.76 68.5295 68H66.9695L66.7055 66.08C66.4975 66.688 66.1375 67.2 65.6255 67.616C65.1295 68.016 64.5375 68.216 63.8495 68.216ZM64.4015 66.728C64.8815 66.728 65.3135 66.568 65.6975 66.248C66.0975 65.912 66.4175 65.52 66.6575 65.072V60.752C65.5695 61.328 64.7775 61.776 64.2815 62.096C63.8015 62.416 63.4335 62.776 63.1775 63.176C62.9375 63.56 62.8175 64.064 62.8175 64.688C62.8175 65.376 62.9615 65.888 63.2495 66.224C63.5535 66.56 63.9375 66.728 64.4015 66.728ZM74.7085 54.128H76.4845V56.024C76.9005 55.336 77.3885 54.824 77.9485 54.488C78.5245 54.152 79.1005 53.984 79.6765 53.984C79.7885 53.984 79.8925 53.992 79.9885 54.008V55.88C79.7005 55.784 79.4125 55.736 79.1245 55.736C78.0205 55.736 77.1405 56.272 76.4845 57.344V68H74.7085V54.128ZM85.4335 54.128H87.2095V56.024C87.6255 55.336 88.1135 54.824 88.6735 54.488C89.2495 54.152 89.8255 53.984 90.4015 53.984C90.5135 53.984 90.6175 53.992 90.7135 54.008V55.88C90.4255 55.784 90.1375 55.736 89.8495 55.736C88.7455 55.736 87.8655 56.272 87.2095 57.344V68H85.4335V54.128ZM99.4002 68.216C98.0242 68.216 97.0642 67.792 96.5202 66.944C95.9762 66.08 95.7042 64.76 95.7042 62.984V59.144C95.7042 57.368 95.9762 56.056 96.5202 55.208C97.0642 54.344 98.0242 53.912 99.4002 53.912C100.792 53.912 101.76 54.344 102.304 55.208C102.848 56.056 103.12 57.368 103.12 59.144V62.984C103.12 64.76 102.848 66.08 102.304 66.944C101.76 67.792 100.792 68.216 99.4002 68.216ZM99.4002 66.896C99.9762 66.896 100.4 66.744 100.672 66.44C100.96 66.136 101.144 65.728 101.224 65.216C101.304 64.688 101.344 63.976 101.344 63.08V59.048C101.344 58.152 101.304 57.448 101.224 56.936C101.144 56.408 100.96 55.992 100.672 55.688C100.4 55.384 99.9762 55.232 99.4002 55.232C98.8242 55.232 98.4002 55.384 98.1282 55.688C97.8562 55.992 97.6802 56.408 97.6002 56.936C97.5202 57.448 97.4802 58.152 97.4802 59.048V63.08C97.4802 63.976 97.5202 64.688 97.6002 65.216C97.6802 65.728 97.8562 66.136 98.1282 66.44C98.4002 66.744 98.8242 66.896 99.4002 66.896ZM109.394 48.56H111.146V68H109.394V48.56ZM117.846 48.56H119.598V68H117.846V48.56ZM129.489 68.216C128.113 68.216 127.153 67.792 126.609 66.944C126.065 66.08 125.793 64.76 125.793 62.984V59.144C125.793 57.368 126.065 56.056 126.609 55.208C127.153 54.344 128.113 53.912 129.489 53.912C130.881 53.912 131.849 54.344 132.393 55.208C132.937 56.056 133.209 57.368 133.209 59.144V62.984C133.209 64.76 132.937 66.08 132.393 66.944C131.849 67.792 130.881 68.216 129.489 68.216ZM129.489 66.896C130.065 66.896 130.489 66.744 130.761 66.44C131.049 66.136 131.233 65.728 131.313 65.216C131.393 64.688 131.433 63.976 131.433 63.08V59.048C131.433 58.152 131.393 57.448 131.313 56.936C131.233 56.408 131.049 55.992 130.761 55.688C130.489 55.384 130.065 55.232 129.489 55.232C128.913 55.232 128.489 55.384 128.217 55.688C127.945 55.992 127.769 56.408 127.689 56.936C127.609 57.448 127.569 58.152 127.569 59.048V63.08C127.569 63.976 127.609 64.688 127.689 65.216C127.769 65.728 127.945 66.136 128.217 66.44C128.489 66.744 128.913 66.896 129.489 66.896ZM137.899 69.176H145.867V70.568H137.899V69.176ZM150.812 54.128H152.564V55.28C153.284 54.368 154.172 53.912 155.228 53.912C156.444 53.912 157.268 54.416 157.7 55.424C158.148 56.416 158.372 57.752 158.372 59.432V62.36C158.372 64.264 158.124 65.72 157.628 66.728C157.132 67.72 156.268 68.216 155.036 68.216C154.172 68.216 153.348 67.776 152.564 66.896V72.56H150.812V54.128ZM154.772 66.824C155.508 66.824 155.996 66.48 156.236 65.792C156.492 65.104 156.62 63.976 156.62 62.408V59.432C156.62 57.944 156.492 56.88 156.236 56.24C155.996 55.6 155.492 55.28 154.724 55.28C154.004 55.28 153.284 55.64 152.564 56.36V65.816C153.204 66.488 153.94 66.824 154.772 66.824ZM164.54 54.128H166.316V56.024C166.732 55.336 167.22 54.824 167.78 54.488C168.356 54.152 168.932 53.984 169.508 53.984C169.62 53.984 169.724 53.992 169.82 54.008V55.88C169.532 55.784 169.244 55.736 168.956 55.736C167.852 55.736 166.972 56.272 166.316 57.344V68H164.54V54.128ZM178.506 68.216C177.13 68.216 176.17 67.792 175.626 66.944C175.082 66.08 174.81 64.76 174.81 62.984V59.144C174.81 57.368 175.082 56.056 175.626 55.208C176.17 54.344 177.13 53.912 178.506 53.912C179.898 53.912 180.866 54.344 181.41 55.208C181.954 56.056 182.226 57.368 182.226 59.144V62.984C182.226 64.76 181.954 66.08 181.41 66.944C180.866 67.792 179.898 68.216 178.506 68.216ZM178.506 66.896C179.082 66.896 179.506 66.744 179.778 66.44C180.066 66.136 180.25 65.728 180.33 65.216C180.41 64.688 180.45 63.976 180.45 63.08V59.048C180.45 58.152 180.41 57.448 180.33 56.936C180.25 56.408 180.066 55.992 179.778 55.688C179.506 55.384 179.082 55.232 178.506 55.232C177.93 55.232 177.506 55.384 177.234 55.688C176.962 55.992 176.786 56.408 176.706 56.936C176.626 57.448 176.586 58.152 176.586 59.048V63.08C176.586 63.976 176.626 64.688 176.706 65.216C176.786 65.728 176.962 66.136 177.234 66.44C177.506 66.744 177.93 66.896 178.506 66.896ZM191.788 72.56C190.364 72.56 189.26 72.352 188.476 71.936C187.708 71.52 187.324 70.888 187.324 70.04C187.324 69.4 187.54 68.816 187.972 68.288C188.42 67.76 188.964 67.336 189.604 67.016C188.58 66.744 188.068 66.24 188.068 65.504C188.068 65.056 188.196 64.648 188.452 64.28C188.724 63.896 189.148 63.464 189.724 62.984C189.116 62.536 188.668 61.968 188.38 61.28C188.108 60.576 187.972 59.736 187.972 58.76C187.972 57.352 188.3 56.192 188.956 55.28C189.612 54.368 190.58 53.912 191.86 53.912C193.268 53.912 194.26 54.488 194.836 55.64C194.98 55.384 195.228 55.104 195.58 54.8C195.948 54.48 196.324 54.24 196.708 54.08L197.068 53.96L197.548 55.184C197.164 55.248 196.732 55.408 196.252 55.664C195.788 55.92 195.46 56.16 195.268 56.384C195.38 56.688 195.476 57.088 195.556 57.584C195.652 58.064 195.7 58.472 195.7 58.808C195.7 60.296 195.396 61.48 194.788 62.36C194.18 63.224 193.212 63.656 191.884 63.656C191.644 63.656 191.388 63.64 191.116 63.608C190.86 63.56 190.644 63.504 190.468 63.44C189.844 64.064 189.532 64.592 189.532 65.024C189.532 65.248 189.62 65.424 189.796 65.552C189.988 65.664 190.284 65.744 190.684 65.792L192.892 66.128C194.044 66.304 194.908 66.656 195.484 67.184C196.076 67.696 196.372 68.416 196.372 69.344C196.372 70.416 195.956 71.216 195.124 71.744C194.308 72.288 193.196 72.56 191.788 72.56ZM191.884 62.384C192.796 62.384 193.404 62.048 193.708 61.376C194.012 60.704 194.164 59.832 194.164 58.76C194.164 56.36 193.404 55.16 191.884 55.16C191.004 55.16 190.396 55.512 190.06 56.216C189.724 56.92 189.556 57.768 189.556 58.76C189.556 61.176 190.332 62.384 191.884 62.384ZM191.86 71.144C192.836 71.144 193.596 71 194.14 70.712C194.7 70.424 194.98 69.976 194.98 69.368C194.98 68.856 194.796 68.456 194.428 68.168C194.076 67.88 193.388 67.656 192.364 67.496L190.588 67.256C190.06 67.64 189.628 68.008 189.292 68.36C188.972 68.728 188.812 69.144 188.812 69.608C188.812 70.136 189.06 70.52 189.556 70.76C190.052 71.016 190.82 71.144 191.86 71.144ZM202.316 54.128H204.092V56.024C204.508 55.336 204.996 54.824 205.556 54.488C206.132 54.152 206.708 53.984 207.284 53.984C207.396 53.984 207.5 53.992 207.596 54.008V55.88C207.308 55.784 207.02 55.736 206.732 55.736C205.628 55.736 204.748 56.272 204.092 57.344V68H202.316V54.128ZM215.251 68.216C214.419 68.216 213.747 67.92 213.235 67.328C212.723 66.736 212.467 66 212.467 65.12C212.467 64.208 212.643 63.456 212.995 62.864C213.363 62.272 213.923 61.744 214.675 61.28C215.427 60.816 216.555 60.248 218.059 59.576V58.592C218.059 57.728 218.003 57.056 217.891 56.576C217.795 56.096 217.619 55.752 217.363 55.544C217.123 55.336 216.779 55.232 216.331 55.232C215.035 55.232 214.387 56.024 214.387 57.608V58.088L212.659 58.064C212.675 56.64 212.979 55.592 213.571 54.92C214.163 54.248 215.115 53.912 216.427 53.912C217.643 53.912 218.507 54.28 219.019 55.016C219.547 55.752 219.811 56.912 219.811 58.496V65.24C219.811 65.688 219.819 66.2 219.835 66.776C219.867 67.352 219.899 67.76 219.931 68H218.371L218.107 66.08C217.899 66.688 217.539 67.2 217.027 67.616C216.531 68.016 215.939 68.216 215.251 68.216ZM215.803 66.728C216.283 66.728 216.715 66.568 217.099 66.248C217.499 65.912 217.819 65.52 218.059 65.072V60.752C216.971 61.328 216.179 61.776 215.683 62.096C215.203 62.416 214.835 62.776 214.579 63.176C214.339 63.56 214.219 64.064 214.219 64.688C214.219 65.376 214.363 65.888 214.651 66.224C214.955 66.56 215.339 66.728 215.803 66.728ZM225.99 54.128H227.622V55.544C228.07 55 228.574 54.592 229.134 54.32C229.694 54.032 230.278 53.888 230.886 53.888C232.038 53.888 232.774 54.488 233.094 55.688C233.558 55.096 234.078 54.648 234.654 54.344C235.246 54.04 235.862 53.888 236.502 53.888C237.19 53.888 237.75 54.136 238.182 54.632C238.63 55.128 238.854 55.936 238.854 57.056V68H237.222V57.104C237.222 56.352 237.102 55.832 236.862 55.544C236.622 55.24 236.278 55.088 235.83 55.088C235.414 55.088 234.974 55.216 234.51 55.472C234.046 55.728 233.614 56.08 233.214 56.528C233.246 56.752 233.262 56.928 233.262 57.056V68H231.606V57.104C231.606 56.336 231.486 55.808 231.246 55.52C231.006 55.232 230.662 55.088 230.214 55.088C229.798 55.088 229.366 55.216 228.918 55.472C228.47 55.728 228.038 56.072 227.622 56.504V68H225.99V54.128ZM247.435 68.216C246.603 68.216 245.931 67.92 245.419 67.328C244.907 66.736 244.651 66 244.651 65.12C244.651 64.208 244.827 63.456 245.179 62.864C245.547 62.272 246.107 61.744 246.859 61.28C247.611 60.816 248.739 60.248 250.243 59.576V58.592C250.243 57.728 250.187 57.056 250.075 56.576C249.979 56.096 249.803 55.752 249.547 55.544C249.307 55.336 248.963 55.232 248.515 55.232C247.219 55.232 246.571 56.024 246.571 57.608V58.088L244.843 58.064C244.859 56.64 245.163 55.592 245.755 54.92C246.347 54.248 247.299 53.912 248.611 53.912C249.827 53.912 250.691 54.28 251.203 55.016C251.731 55.752 251.995 56.912 251.995 58.496V65.24C251.995 65.688 252.003 66.2 252.019 66.776C252.051 67.352 252.083 67.76 252.115 68H250.555L250.291 66.08C250.083 66.688 249.723 67.2 249.211 67.616C248.715 68.016 248.123 68.216 247.435 68.216ZM247.987 66.728C248.467 66.728 248.899 66.568 249.283 66.248C249.683 65.912 250.003 65.52 250.243 65.072V60.752C249.155 61.328 248.363 61.776 247.867 62.096C247.387 62.416 247.019 62.776 246.763 63.176C246.523 63.56 246.403 64.064 246.403 64.688C246.403 65.376 246.547 65.888 246.835 66.224C247.139 66.56 247.523 66.728 247.987 66.728ZM261.63 68.216C260.606 68.216 259.822 67.992 259.278 67.544C258.734 67.08 258.366 66.464 258.174 65.696C257.998 64.912 257.91 63.928 257.91 62.744V59.504C257.91 58.16 258.014 57.088 258.222 56.288C258.446 55.488 258.822 54.896 259.35 54.512C259.894 54.112 260.654 53.912 261.63 53.912C262.99 53.912 263.918 54.288 264.414 55.04C264.91 55.776 265.158 56.88 265.158 58.352V59.024H263.526V58.352C263.526 57.536 263.462 56.904 263.334 56.456C263.222 56.008 263.03 55.696 262.758 55.52C262.486 55.328 262.11 55.232 261.63 55.232C261.086 55.232 260.67 55.36 260.382 55.616C260.11 55.872 259.918 56.28 259.806 56.84C259.71 57.384 259.662 58.176 259.662 59.216V63.104C259.662 64.064 259.718 64.816 259.83 65.36C259.942 65.904 260.142 66.296 260.43 66.536C260.718 66.776 261.126 66.896 261.654 66.896C262.198 66.896 262.598 66.784 262.854 66.56C263.126 66.32 263.302 65.968 263.382 65.504C263.478 65.04 263.526 64.392 263.526 63.56V62.792H265.158V63.464C265.158 64.504 265.062 65.368 264.87 66.056C264.694 66.728 264.35 67.256 263.838 67.64C263.326 68.024 262.59 68.216 261.63 68.216ZM271.295 49.832H273.047V52.208H271.295V49.832ZM271.295 54.128H273.047V68H271.295V54.128ZM283.033 68.216C281.657 68.216 280.697 67.792 280.153 66.944C279.609 66.08 279.337 64.76 279.337 62.984V59.144C279.337 57.368 279.609 56.056 280.153 55.208C280.697 54.344 281.657 53.912 283.033 53.912C284.425 53.912 285.393 54.344 285.937 55.208C286.481 56.056 286.753 57.368 286.753 59.144V62.984C286.753 64.76 286.481 66.08 285.937 66.944C285.393 67.792 284.425 68.216 283.033 68.216ZM283.033 66.896C283.609 66.896 284.033 66.744 284.305 66.44C284.593 66.136 284.777 65.728 284.857 65.216C284.937 64.688 284.977 63.976 284.977 63.08V59.048C284.977 58.152 284.937 57.448 284.857 56.936C284.777 56.408 284.593 55.992 284.305 55.688C284.033 55.384 283.609 55.232 283.033 55.232C282.457 55.232 282.033 55.384 281.761 55.688C281.489 55.992 281.313 56.408 281.233 56.936C281.153 57.448 281.113 58.152 281.113 59.048V63.08C281.113 63.976 281.153 64.688 281.233 65.216C281.313 65.728 281.489 66.136 281.761 66.44C282.033 66.744 282.457 66.896 283.033 66.896ZM284.113 48.272H285.865L283.513 52.976H282.601L284.113 48.272ZM292.787 54.128H294.539V55.568C295.003 55.056 295.515 54.656 296.075 54.368C296.651 54.064 297.251 53.912 297.875 53.912C298.563 53.912 299.091 54.168 299.459 54.68C299.827 55.192 300.011 55.92 300.011 56.864V68H298.259V57.248C298.259 56.544 298.147 56.04 297.923 55.736C297.715 55.432 297.387 55.28 296.939 55.28C296.555 55.28 296.155 55.4 295.739 55.64C295.323 55.864 294.923 56.176 294.539 56.576V68H292.787V54.128ZM314.106 54.128H315.618L317.346 65.72L319.53 54.128H321.042L323.25 65.672L324.906 54.128H326.418L324.162 68H322.53L320.298 56.72L318.138 68H316.362L314.106 54.128ZM335.567 68.216C334.671 68.216 333.951 68.04 333.407 67.688C332.863 67.336 332.463 66.768 332.207 65.984C331.951 65.2 331.823 64.136 331.823 62.792V59.288C331.823 57.928 331.951 56.864 332.207 56.096C332.479 55.312 332.887 54.752 333.431 54.416C333.991 54.08 334.711 53.912 335.591 53.912C336.551 53.912 337.287 54.12 337.799 54.536C338.327 54.936 338.687 55.544 338.879 56.36C339.087 57.176 339.191 58.272 339.191 59.648V60.896H333.575V63.32C333.575 64.648 333.727 65.576 334.031 66.104C334.335 66.632 334.847 66.896 335.567 66.896C336.175 66.896 336.639 66.704 336.959 66.32C337.295 65.936 337.463 65.24 337.463 64.232V63.272H339.167V64.04C339.167 65.384 338.887 66.416 338.327 67.136C337.767 67.856 336.847 68.216 335.567 68.216ZM337.463 59.888V58.736C337.463 57.904 337.415 57.248 337.319 56.768C337.239 56.288 337.063 55.912 336.791 55.64C336.519 55.368 336.111 55.232 335.567 55.232C335.071 55.232 334.679 55.344 334.391 55.568C334.103 55.776 333.895 56.152 333.767 56.696C333.639 57.224 333.575 57.976 333.575 58.952V59.888H337.463ZM349.404 68.216C348.508 68.216 347.684 67.776 346.932 66.896V68H345.18V48.56H346.932V55.28C347.236 54.88 347.612 54.552 348.06 54.296C348.508 54.04 349.012 53.912 349.572 53.912C350.788 53.912 351.62 54.416 352.068 55.424C352.516 56.432 352.74 57.768 352.74 59.432V62.36C352.74 64.264 352.492 65.72 351.996 66.728C351.5 67.72 350.636 68.216 349.404 68.216ZM349.092 66.824C349.844 66.824 350.34 66.48 350.58 65.792C350.836 65.104 350.964 63.976 350.964 62.408V59.432C350.964 57.944 350.836 56.88 350.58 56.24C350.34 55.6 349.836 55.28 349.068 55.28C348.364 55.28 347.652 55.64 346.932 56.36V65.816C347.54 66.488 348.26 66.824 349.092 66.824Z" fill="white"/>
</svg>
